<svg width="690" height="430" viewBox="0 0 690 430" fill="none" xmlns="http://www.w3.org/2000/svg">
<path d="M60.2059 165.001C74.3636 141.716 75.5728 113.144 81.7942 86.6078C88.0156 60.0713 103.122 31.7693 129.683 25.7242C159.787 18.8729 188.542 43.7142 219.413 43.8595C241.712 43.9648 261.714 31.3143 281.918 21.8723C315.718 6.07558 353.359 -1.42053 390.63 0.222036C408.61 1.01379 427.936 4.62936 440.219 17.7923C447.391 25.4799 451.349 35.6195 457.813 43.9121C475.901 67.1188 509.54 71.325 538.683 67.363C567.827 63.4011 596.421 53.1977 625.789 54.7828C655.158 56.3679 686.991 75.0124 689.797 104.309C691.749 124.689 679.327 143.542 665.943 159.028C652.559 174.513 637.172 189.424 631.046 208.956C617.229 253.008 655.64 297.869 652.103 343.904C649.327 380.037 619.771 410.235 585.532 422.043C551.294 433.851 513.474 430.032 478.53 420.512C443.587 410.992 410.363 396.022 375.754 385.346C341.146 374.67 303.997 368.349 268.754 376.69C234.748 384.736 204.605 405.927 170.102 411.457C145.2 415.447 119.057 410.54 97.0654 398.266C71.4874 383.991 59.7369 362.54 45.3288 338.369C35.475 321.84 20.7383 309.842 9.86833 294.259C-1.52482 277.925 -2.25704 256.319 3.62459 237.628C13.196 207.211 44.2281 191.274 60.2027 164.999L60.2059 165.001Z" fill="#FDF2F6"/>
<path d="M60.2059 165.001C74.3636 141.716 75.5728 113.144 81.7942 86.6078C88.0156 60.0713 103.122 31.7693 129.683 25.7242C159.787 18.8729 188.542 43.7142 219.413 43.8595C241.712 43.9648 261.714 31.3143 281.918 21.8723C315.718 6.07558 353.359 -1.42053 390.63 0.222036C408.61 1.01379 427.936 4.62936 440.219 17.7923C447.391 25.4799 451.349 35.6195 457.813 43.9121C475.901 67.1188 509.54 71.325 538.683 67.363C567.827 63.4011 596.421 53.1977 625.789 54.7828C655.158 56.3679 686.991 75.0124 689.797 104.309C691.749 124.689 679.327 143.542 665.943 159.028C652.559 174.513 637.172 189.424 631.046 208.956C617.229 253.008 655.64 297.869 652.103 343.904C649.327 380.037 619.771 410.235 585.532 422.043C551.294 433.851 513.474 430.032 478.53 420.512C443.587 410.992 410.363 396.022 375.754 385.346C341.146 374.67 303.997 368.349 268.754 376.69C234.748 384.736 204.605 405.927 170.102 411.457C145.2 415.447 119.057 410.54 97.0654 398.266C71.4874 383.991 59.7369 362.54 45.3288 338.369C35.475 321.84 20.7383 309.842 9.86833 294.259C-1.52482 277.925 -2.25704 256.319 3.62459 237.628C13.196 207.211 44.2281 191.274 60.2027 164.999L60.2059 165.001Z" fill="#FDF2F6"/>
<path d="M322.52 285.102C484.049 285.102 614.993 278.782 614.993 270.986C614.993 263.19 484.049 256.87 322.52 256.87C160.992 256.87 30.0469 263.19 30.0469 270.986C30.0469 278.782 160.992 285.102 322.52 285.102Z" fill="#3E4344"/>
<path d="M322.52 285.102C484.049 285.102 614.993 278.782 614.993 270.986C614.993 263.19 484.049 256.87 322.52 256.87C160.992 256.87 30.0469 263.19 30.0469 270.986C30.0469 278.782 160.992 285.102 322.52 285.102Z" fill="#3E4344"/>
<path d="M295.466 71.7064C294.107 70.9849 293.04 69.9856 292.264 68.7102C291.489 67.4348 291.102 65.9981 291.102 64.4003C291.102 62.8024 291.489 61.3658 292.264 60.0903C293.04 58.8149 294.107 57.8156 295.466 57.0941C296.825 56.3726 298.357 56.0118 300.06 56.0118C301.764 56.0118 303.297 56.3726 304.656 57.0941C306.015 57.8156 307.083 58.8149 307.858 60.0903C308.633 61.3658 309.021 62.8024 309.021 64.4003C309.021 65.9981 308.633 67.4348 307.858 68.7102C307.083 69.9856 306.015 70.9849 304.656 71.7064C303.297 72.4279 301.766 72.7887 300.06 72.7887C298.355 72.7887 296.824 72.4279 295.466 71.7064ZM302.273 68.4325C302.933 68.0494 303.455 67.5082 303.839 66.8075C304.222 66.1083 304.415 65.307 304.415 64.3987C304.415 63.4904 304.224 62.6891 303.839 61.9899C303.455 61.2907 302.933 60.7496 302.273 60.3649C301.613 59.9818 300.876 59.7886 300.062 59.7886C299.248 59.7886 298.511 59.9802 297.851 60.3649C297.191 60.7496 296.669 61.2907 296.284 61.9899C295.9 62.6891 295.709 63.492 295.709 64.3987C295.709 65.3054 295.9 66.1083 296.284 66.8075C296.669 67.5066 297.191 68.0478 297.851 68.4325C298.511 68.8172 299.248 69.0087 300.062 69.0087C300.876 69.0087 301.613 68.8172 302.273 68.4325Z" fill="#F5719E"/>
<path d="M314.951 71.7064C313.591 70.9849 312.524 69.9856 311.749 68.7102C310.974 67.4348 310.586 65.9981 310.586 64.4003C310.586 62.8024 310.974 61.3658 311.749 60.0903C312.524 58.8149 313.591 57.8156 314.951 57.0941C316.31 56.3726 317.841 56.0118 319.546 56.0118C321.252 56.0118 322.783 56.3726 324.141 57.0941C325.5 57.8156 326.567 58.8149 327.342 60.0903C328.118 61.3658 328.505 62.8024 328.505 64.4003C328.505 65.9981 328.118 67.4348 327.342 68.7102C326.567 69.9856 325.5 70.9849 324.141 71.7064C322.782 72.4279 321.25 72.7887 319.546 72.7887C317.843 72.7887 316.31 72.4279 314.951 71.7064ZM321.757 68.4325C322.418 68.0494 322.939 67.5082 323.324 66.8075C323.707 66.1083 323.9 65.307 323.9 64.3987C323.9 63.4904 323.708 62.6891 323.324 61.9899C322.939 61.2907 322.418 60.7496 321.757 60.3649C321.097 59.9818 320.36 59.7886 319.546 59.7886C318.733 59.7886 317.996 59.9802 317.335 60.3649C316.675 60.7496 316.153 61.2907 315.769 61.9899C315.384 62.6891 315.193 63.492 315.193 64.3987C315.193 65.3054 315.384 66.1083 315.769 66.8075C316.153 67.5066 316.675 68.0478 317.335 68.4325C317.996 68.8172 318.733 69.0087 319.546 69.0087C320.36 69.0087 321.097 68.8172 321.757 68.4325Z" fill="#F5719E"/>
<path d="M342.07 57.059C343.145 57.5426 343.975 58.2338 344.557 59.1325C345.141 60.0312 345.433 61.088 345.433 62.3011C345.433 63.5143 345.141 64.5678 344.557 65.4586C343.973 66.3493 343.143 67.0373 342.07 67.521C340.995 68.0046 339.728 68.2473 338.27 68.2473H335.459V72.4646H330.898V56.3311H338.268C339.726 56.3311 340.993 56.5737 342.068 57.0574L342.07 57.059ZM340.113 64.0427C340.588 63.6356 340.827 63.0546 340.827 62.3027C340.827 61.5509 340.589 60.9666 340.113 60.5516C339.637 60.1366 338.93 59.9291 337.994 59.9291H335.461V64.654H337.994C338.93 64.654 339.637 64.4513 340.113 64.0427Z" fill="#F5719E"/>
<path d="M349.736 72.305C348.508 71.9825 347.509 71.5516 346.742 71.0136L348.238 67.6487C348.96 68.1259 349.797 68.5091 350.749 68.8012C351.702 69.0933 352.638 69.2386 353.56 69.2386C355.31 69.2386 356.186 68.8012 356.186 67.9248C356.186 67.4635 355.935 67.1219 355.438 66.8984C354.938 66.6765 354.136 66.4419 353.031 66.196C351.818 65.9359 350.804 65.6549 349.99 65.3548C349.176 65.0547 348.478 64.5742 347.894 63.915C347.31 63.2557 347.018 62.3634 347.018 61.2412C347.018 60.2579 347.286 59.3704 347.824 58.5786C348.361 57.7869 349.164 57.1611 350.231 56.6998C351.298 56.2385 352.606 56.0086 354.158 56.0086C355.218 56.0086 356.263 56.1283 357.291 56.3662C358.32 56.604 359.226 56.9536 360.01 57.4149L358.604 60.8022C357.068 59.9722 355.578 59.5587 354.136 59.5587C353.23 59.5587 352.57 59.6928 352.155 59.9626C351.74 60.2324 351.533 60.5803 351.533 61.0113C351.533 61.4423 351.778 61.7648 352.27 61.9787C352.761 62.1942 353.552 62.4161 354.642 62.6475C355.87 62.9093 356.888 63.1887 357.693 63.4888C358.499 63.7889 359.198 64.2646 359.79 64.9174C360.38 65.5703 360.677 66.4578 360.677 67.58C360.677 68.5474 360.407 69.4237 359.871 70.2075C359.333 70.9913 358.528 71.617 357.453 72.0847C356.377 72.554 355.072 72.7871 353.536 72.7871C352.231 72.7871 350.965 72.6259 349.736 72.3034V72.305Z" fill="#F5719E"/>
<path d="M364.643 72.305C363.414 71.9825 362.416 71.5516 361.648 71.0136L363.145 67.6487C363.866 68.1259 364.703 68.5091 365.656 68.8012C366.608 69.0933 367.544 69.2386 368.466 69.2386C370.216 69.2386 371.092 68.8012 371.092 67.9248C371.092 67.4635 370.842 67.1219 370.342 66.8984C369.843 66.6765 369.042 66.4419 367.935 66.196C366.721 65.9359 365.708 65.6549 364.895 65.3548C364.081 65.0547 363.382 64.5742 362.799 63.915C362.215 63.2557 361.923 62.3634 361.923 61.2412C361.923 60.2579 362.191 59.3704 362.728 58.5786C363.266 57.7869 364.068 57.1611 365.136 56.6998C366.203 56.2385 367.511 56.0086 369.063 56.0086C370.122 56.0086 371.167 56.1283 372.195 56.3662C373.223 56.604 374.13 56.9536 374.913 57.4149L373.507 60.8022C371.973 59.9722 370.481 59.5587 369.039 59.5587C368.131 59.5587 367.473 59.6928 367.058 59.9626C366.643 60.2324 366.436 60.5803 366.436 61.0113C366.436 61.4423 366.681 61.7648 367.173 61.9787C367.664 62.1942 368.454 62.4161 369.545 62.6475C370.773 62.9093 371.791 63.1887 372.598 63.4888C373.405 63.7889 374.102 64.2646 374.694 64.9174C375.286 65.5703 375.581 66.4578 375.581 67.58C375.581 68.5474 375.312 69.4237 374.774 70.2075C374.236 70.9913 373.429 71.617 372.356 72.0847C371.28 72.554 369.976 72.7871 368.441 72.7871C367.134 72.7871 365.868 72.6259 364.64 72.3034L364.643 72.305Z" fill="#F5719E"/>
<path d="M377.908 71.9364C377.402 71.4447 377.148 70.8222 377.148 70.0703C377.148 69.3185 377.399 68.68 377.897 68.2027C378.396 67.727 379.021 67.4875 379.774 67.4875C380.527 67.4875 381.172 67.7254 381.663 68.2027C382.154 68.6784 382.4 69.3009 382.4 70.0703C382.4 70.8397 382.149 71.4447 381.652 71.9364C381.152 72.428 380.527 72.6739 379.774 72.6739C379.021 72.6739 378.415 72.428 377.908 71.9364Z" fill="#F5719E"/>
<path d="M384.423 71.9364C383.918 71.4447 383.664 70.8222 383.664 70.0703C383.664 69.3185 383.915 68.68 384.412 68.2027C384.91 67.7254 385.537 67.4875 386.29 67.4875C387.043 67.4875 387.687 67.7254 388.179 68.2027C388.67 68.6784 388.916 69.3009 388.916 70.0703C388.916 70.8397 388.665 71.4447 388.167 71.9364C387.668 72.428 387.043 72.6739 386.29 72.6739C385.537 72.6739 384.931 72.428 384.423 71.9364Z" fill="#F5719E"/>
<path d="M390.947 71.9364C390.441 71.4447 390.188 70.8222 390.188 70.0703C390.188 69.3185 390.438 68.68 390.936 68.2027C391.433 67.7254 392.06 67.4875 392.813 67.4875C393.566 67.4875 394.211 67.7254 394.702 68.2027C395.193 68.6784 395.439 69.3009 395.439 70.0703C395.439 70.8397 395.189 71.4447 394.691 71.9364C394.192 72.428 393.566 72.6739 392.813 72.6739C392.06 72.6739 391.454 72.428 390.947 71.9364Z" fill="#F5719E"/>
<path d="M266.564 299.872C267.343 300.223 267.943 300.723 268.365 301.374C268.788 302.026 268.999 302.79 268.999 303.668C268.999 304.546 268.788 305.309 268.365 305.954C267.943 306.599 267.343 307.097 266.564 307.446C265.786 307.798 264.869 307.972 263.813 307.972H261.779V311.025H258.477V299.347H263.813C264.869 299.347 265.786 299.523 266.564 299.872ZM265.148 304.928C265.492 304.634 265.665 304.212 265.665 303.668C265.665 303.124 265.492 302.701 265.148 302.401C264.803 302.101 264.291 301.951 263.613 301.951H261.779V305.371H263.613C264.291 305.371 264.803 305.224 265.148 304.929V304.928Z" fill="#FAA7C5"/>
<path d="M277.654 302.859C278.443 303.543 278.838 304.591 278.838 306.003V311.025H275.886V309.857C275.43 310.735 274.542 311.175 273.219 311.175C272.519 311.175 271.913 311.052 271.402 310.808C270.89 310.564 270.504 310.232 270.244 309.815C269.982 309.399 269.852 308.923 269.852 308.388C269.852 307.533 270.179 306.867 270.836 306.394C271.491 305.922 272.503 305.686 273.87 305.686H275.671C275.615 304.73 274.975 304.251 273.753 304.251C273.32 304.251 272.881 304.321 272.436 304.46C271.991 304.599 271.613 304.79 271.302 305.036L270.234 302.884C270.735 302.551 271.343 302.292 272.061 302.108C272.777 301.925 273.498 301.834 274.221 301.834C275.722 301.834 276.866 302.175 277.655 302.86L277.654 302.859ZM275.07 308.907C275.347 308.73 275.548 308.468 275.669 308.123V307.339H274.302C273.38 307.339 272.918 307.646 272.918 308.257C272.918 308.535 273.023 308.759 273.235 308.925C273.446 309.091 273.736 309.175 274.101 309.175C274.467 309.175 274.79 309.086 275.068 308.909L275.07 308.907Z" fill="#FAA7C5"/>
<path d="M290.686 301.982V309.373C290.686 311.052 290.23 312.312 289.319 313.152C288.408 313.991 287.095 314.411 285.384 314.411C284.493 314.411 283.661 314.31 282.882 314.111C282.104 313.911 281.443 313.616 280.898 313.227L282.048 311.008C282.415 311.308 282.879 311.544 283.441 311.716C284.002 311.889 284.554 311.975 285.1 311.975C285.934 311.975 286.545 311.791 286.934 311.424C287.323 311.057 287.518 310.513 287.518 309.79V309.49C286.907 310.202 286.012 310.558 284.833 310.558C284.032 310.558 283.294 310.377 282.616 310.015C281.938 309.654 281.399 309.142 280.998 308.479C280.598 307.817 280.398 307.052 280.398 306.185C280.398 305.319 280.598 304.57 280.998 303.907C281.399 303.245 281.938 302.734 282.616 302.372C283.294 302.011 284.032 301.829 284.833 301.829C286.122 301.829 287.068 302.246 287.668 303.081V301.979H290.686V301.982ZM286.993 307.521C287.365 307.177 287.551 306.731 287.551 306.187C287.551 305.643 287.368 305.2 287.001 304.86C286.634 304.522 286.162 304.351 285.585 304.351C285.007 304.351 284.532 304.52 284.158 304.86C283.785 305.2 283.6 305.643 283.6 306.187C283.6 306.731 283.788 307.177 284.166 307.521C284.544 307.866 285.017 308.039 285.583 308.039C286.149 308.039 286.62 307.866 286.992 307.521H286.993Z" fill="#FAA7C5"/>
<path d="M301.91 307.304H295.34C295.474 307.772 295.733 308.13 296.116 308.38C296.498 308.631 296.98 308.755 297.558 308.755C297.992 308.755 298.367 308.695 298.684 308.572C299.001 308.449 299.32 308.249 299.643 307.972L301.31 309.707C300.431 310.685 299.148 311.175 297.459 311.175C296.403 311.175 295.474 310.976 294.674 310.575C293.873 310.175 293.254 309.619 292.815 308.907C292.376 308.195 292.156 307.389 292.156 306.487C292.156 305.585 292.37 304.8 292.798 304.093C293.225 303.387 293.817 302.833 294.573 302.433C295.329 302.032 296.179 301.832 297.124 301.832C298.068 301.832 298.842 302.019 299.574 302.391C300.308 302.763 300.889 303.303 301.316 304.01C301.744 304.717 301.957 305.553 301.957 306.521C301.957 306.543 301.941 306.805 301.908 307.304H301.91ZM295.915 304.501C295.586 304.779 295.379 305.157 295.289 305.636H298.99C298.901 305.157 298.694 304.781 298.365 304.501C298.036 304.224 297.628 304.085 297.14 304.085C296.652 304.085 296.242 304.224 295.915 304.501Z" fill="#FAA7C5"/>
<path d="M319.528 299.347V311.025H316.81L311.657 304.801V311.025H308.422V299.347H311.14L316.293 305.571V299.347H319.528Z" fill="#FAA7C5"/>
<path d="M323.632 310.575C322.854 310.175 322.246 309.619 321.807 308.907C321.369 308.195 321.148 307.389 321.148 306.487C321.148 305.585 321.369 304.797 321.807 304.085C322.246 303.373 322.852 302.819 323.624 302.425C324.396 302.03 325.272 301.832 326.25 301.832C327.228 301.832 328.107 302.03 328.884 302.425C329.662 302.819 330.267 303.37 330.701 304.077C331.135 304.784 331.352 305.587 331.352 306.487C331.352 307.387 331.135 308.195 330.701 308.907C330.267 309.619 329.661 310.175 328.884 310.575C328.105 310.976 327.228 311.175 326.25 311.175C325.272 311.175 324.411 310.976 323.632 310.575ZM327.617 308.08C327.973 307.697 328.15 307.166 328.15 306.487C328.15 305.809 327.971 305.296 327.617 304.918C327.261 304.54 326.805 304.351 326.25 304.351C325.695 304.351 325.239 304.541 324.883 304.918C324.527 305.296 324.35 305.818 324.35 306.487C324.35 307.156 324.527 307.697 324.883 308.08C325.239 308.463 325.695 308.656 326.25 308.656C326.805 308.656 327.261 308.465 327.617 308.08Z" fill="#FAA7C5"/>
<path d="M339.054 310.658C338.787 310.826 338.462 310.953 338.079 311.041C337.696 311.131 337.288 311.175 336.854 311.175C335.675 311.175 334.771 310.886 334.136 310.309C333.502 309.731 333.185 308.869 333.185 307.723V304.687H331.867V302.318H333.185V299.965H336.353V302.318H338.42V304.687H336.353V307.689C336.353 308.012 336.439 308.265 336.611 308.449C336.784 308.633 337.013 308.723 337.304 308.723C337.671 308.723 337.993 308.629 338.27 308.439L339.054 310.658Z" fill="#FAA7C5"/>
<path d="M348.583 301.899V304.469H353.736V307.022H348.583V311.025H345.281V299.347H354.435V301.899H348.582H348.583Z" fill="#FAA7C5"/>
<path d="M357.554 310.575C356.776 310.174 356.168 309.619 355.729 308.907C355.29 308.195 355.07 307.389 355.07 306.487C355.07 305.585 355.29 304.796 355.729 304.084C356.168 303.373 356.774 302.819 357.546 302.424C358.318 302.03 359.194 301.832 360.172 301.832C361.15 301.832 362.029 302.03 362.806 302.424C363.584 302.819 364.189 303.369 364.623 304.077C365.056 304.784 365.273 305.587 365.273 306.487C365.273 307.387 365.056 308.195 364.623 308.907C364.189 309.619 363.582 310.174 362.806 310.575C362.027 310.976 361.15 311.175 360.172 311.175C359.194 311.175 358.333 310.976 357.554 310.575ZM361.539 308.08C361.895 307.697 362.072 307.165 362.072 306.487C362.072 305.808 361.893 305.296 361.539 304.918C361.183 304.539 360.727 304.351 360.172 304.351C359.617 304.351 359.16 304.541 358.805 304.918C358.449 305.296 358.272 305.818 358.272 306.487C358.272 307.156 358.449 307.697 358.805 308.08C359.16 308.463 359.617 308.656 360.172 308.656C360.727 308.656 361.183 308.465 361.539 308.08Z" fill="#FAA7C5"/>
<path d="M376.249 301.982V311.025H373.231V310.058C372.897 310.425 372.497 310.703 372.029 310.893C371.562 311.081 371.068 311.177 370.546 311.177C369.378 311.177 368.448 310.832 367.753 310.142C367.057 309.453 366.711 308.418 366.711 307.039V301.984H369.879V306.522C369.879 307.2 370.007 307.695 370.262 308.007C370.517 308.318 370.89 308.474 371.379 308.474C371.867 308.474 372.288 308.299 372.604 307.949C372.921 307.598 373.079 307.062 373.079 306.338V301.984H376.247L376.249 301.982Z" fill="#FAA7C5"/>
<path d="M386.869 302.833C387.553 303.5 387.894 304.508 387.894 305.853V311.025H384.726V306.37C384.726 305.135 384.232 304.519 383.243 304.519C382.699 304.519 382.262 304.698 381.933 305.052C381.604 305.408 381.442 305.943 381.442 306.653V311.024H378.273V301.981H381.292V302.966C381.647 302.598 382.07 302.318 382.558 302.123C383.048 301.928 383.581 301.831 384.158 301.831C385.281 301.831 386.184 302.164 386.867 302.831L386.869 302.833Z" fill="#FAA7C5"/>
<path d="M399.622 298.645V311.025H396.604V310.125C396.015 310.826 395.131 311.175 393.952 311.175C393.129 311.175 392.379 310.984 391.701 310.599C391.023 310.216 390.487 309.667 390.092 308.955C389.698 308.243 389.5 307.419 389.5 306.485C389.5 305.552 389.698 304.731 390.092 304.024C390.486 303.318 391.023 302.776 391.701 302.397C392.379 302.019 393.129 301.831 393.952 301.831C395.031 301.831 395.863 302.142 396.454 302.765V298.643H399.622V298.645ZM395.97 308.08C396.326 307.697 396.503 307.165 396.503 306.487C396.503 305.809 396.328 305.296 395.978 304.918C395.629 304.54 395.174 304.351 394.619 304.351C394.064 304.351 393.608 304.541 393.252 304.918C392.896 305.296 392.719 305.818 392.719 306.487C392.719 307.156 392.896 307.697 393.252 308.08C393.608 308.463 394.064 308.656 394.619 308.656C395.174 308.656 395.615 308.465 395.97 308.08Z" fill="#FAA7C5"/>
<path d="M266.572 299.872C267.351 300.223 267.95 300.723 268.373 301.374C268.796 302.026 269.007 302.79 269.007 303.668C269.007 304.546 268.796 305.309 268.373 305.954C267.95 306.599 267.351 307.097 266.572 307.447C265.794 307.798 264.876 307.972 263.82 307.972H261.787V311.025H258.484V299.347H263.82C264.876 299.347 265.794 299.523 266.572 299.872ZM265.156 304.928C265.5 304.634 265.672 304.213 265.672 303.668C265.672 303.124 265.5 302.701 265.156 302.401C264.811 302.101 264.299 301.951 263.621 301.951H261.787V305.371H263.621C264.299 305.371 264.811 305.225 265.156 304.929V304.928Z" fill="#F5719E"/>
<path d="M277.662 302.859C278.451 303.544 278.845 304.591 278.845 306.003V311.025H275.894V309.857C275.438 310.735 274.549 311.175 273.227 311.175C272.527 311.175 271.92 311.052 271.41 310.808C270.898 310.564 270.512 310.232 270.252 309.815C269.99 309.399 269.859 308.923 269.859 308.388C269.859 307.533 270.186 306.867 270.844 306.395C271.499 305.922 272.511 305.686 273.878 305.686H275.679C275.623 304.73 274.983 304.251 273.761 304.251C273.327 304.251 272.889 304.321 272.444 304.46C271.999 304.599 271.621 304.79 271.309 305.036L270.242 302.884C270.743 302.551 271.351 302.292 272.069 302.109C272.785 301.925 273.506 301.834 274.229 301.834C275.73 301.834 276.874 302.176 277.663 302.86L277.662 302.859ZM275.077 308.907C275.355 308.73 275.556 308.468 275.677 308.123V307.34H274.31C273.388 307.34 272.925 307.646 272.925 308.257C272.925 308.535 273.031 308.759 273.243 308.925C273.453 309.091 273.744 309.175 274.109 309.175C274.474 309.175 274.798 309.086 275.076 308.909L275.077 308.907Z" fill="#F5719E"/>
<path d="M290.694 301.982V309.373C290.694 311.053 290.238 312.312 289.327 313.152C288.416 313.991 287.103 314.411 285.391 314.411C284.501 314.411 283.668 314.311 282.89 314.111C282.112 313.911 281.451 313.616 280.906 313.227L282.056 311.008C282.423 311.308 282.887 311.544 283.448 311.717C284.01 311.889 284.562 311.975 285.107 311.975C285.942 311.975 286.553 311.792 286.942 311.424C287.331 311.057 287.526 310.513 287.526 309.79V309.49C286.915 310.202 286.02 310.558 284.841 310.558C284.04 310.558 283.302 310.377 282.624 310.015C281.946 309.654 281.406 309.142 281.006 308.479C280.606 307.817 280.406 307.052 280.406 306.185C280.406 305.319 280.606 304.57 281.006 303.908C281.406 303.245 281.946 302.734 282.624 302.372C283.302 302.011 284.04 301.829 284.841 301.829C286.13 301.829 287.076 302.246 287.676 303.081V301.979H290.694V301.982ZM287.001 307.522C287.373 307.177 287.559 306.731 287.559 306.187C287.559 305.643 287.376 305.201 287.009 304.861C286.642 304.522 286.17 304.351 285.592 304.351C285.015 304.351 284.539 304.521 284.166 304.861C283.793 305.201 283.608 305.643 283.608 306.187C283.608 306.731 283.796 307.177 284.174 307.522C284.552 307.866 285.024 308.039 285.591 308.039C286.157 308.039 286.628 307.866 286.999 307.522H287.001Z" fill="#F5719E"/>
<path d="M301.917 307.305H295.348C295.482 307.772 295.741 308.13 296.123 308.38C296.506 308.631 296.988 308.756 297.566 308.756C297.999 308.756 298.374 308.695 298.692 308.572C299.009 308.449 299.328 308.25 299.651 307.972L301.318 309.707C300.439 310.685 299.156 311.176 297.467 311.176C296.411 311.176 295.482 310.976 294.681 310.575C293.881 310.175 293.262 309.619 292.823 308.907C292.384 308.195 292.164 307.389 292.164 306.487C292.164 305.585 292.378 304.8 292.805 304.093C293.233 303.387 293.825 302.833 294.581 302.433C295.337 302.032 296.187 301.833 297.132 301.833C298.076 301.833 298.85 302.019 299.582 302.391C300.316 302.763 300.896 303.303 301.324 304.01C301.751 304.717 301.965 305.553 301.965 306.521C301.965 306.543 301.949 306.805 301.916 307.305H301.917ZM295.922 304.501C295.594 304.779 295.386 305.158 295.297 305.636H298.998C298.909 305.158 298.701 304.781 298.373 304.501C298.044 304.224 297.636 304.085 297.148 304.085C296.659 304.085 296.249 304.224 295.922 304.501Z" fill="#F5719E"/>
<path d="M319.536 299.347V311.025H316.817L311.665 304.802V311.025H308.43V299.347H311.148L316.301 305.571V299.347H319.536Z" fill="#F5719E"/>
<path d="M323.64 310.575C322.862 310.175 322.254 309.619 321.815 308.907C321.376 308.195 321.156 307.389 321.156 306.487C321.156 305.585 321.376 304.797 321.815 304.085C322.254 303.373 322.86 302.819 323.632 302.425C324.404 302.03 325.28 301.833 326.258 301.833C327.236 301.833 328.115 302.03 328.892 302.425C329.67 302.819 330.275 303.37 330.709 304.077C331.142 304.784 331.359 305.587 331.359 306.487C331.359 307.388 331.142 308.195 330.709 308.907C330.275 309.619 329.668 310.175 328.892 310.575C328.113 310.976 327.236 311.176 326.258 311.176C325.28 311.176 324.419 310.976 323.64 310.575ZM327.625 308.08C327.981 307.697 328.158 307.166 328.158 306.487C328.158 305.809 327.979 305.296 327.625 304.918C327.269 304.54 326.813 304.351 326.258 304.351C325.703 304.351 325.246 304.541 324.891 304.918C324.535 305.296 324.358 305.818 324.358 306.487C324.358 307.156 324.535 307.697 324.891 308.08C325.246 308.463 325.703 308.657 326.258 308.657C326.813 308.657 327.269 308.465 327.625 308.08Z" fill="#F5719E"/>
<path d="M339.062 310.658C338.795 310.826 338.47 310.954 338.087 311.041C337.704 311.131 337.296 311.175 336.862 311.175C335.683 311.175 334.778 310.887 334.143 310.309C333.51 309.731 333.193 308.869 333.193 307.723V304.687H331.875V302.318H333.193V299.965H336.361V302.318H338.428V304.687H336.361V307.689C336.361 308.012 336.447 308.265 336.619 308.449C336.792 308.633 337.021 308.724 337.312 308.724C337.678 308.724 338.001 308.629 338.278 308.439L339.062 310.658Z" fill="#F5719E"/>
<path d="M348.591 301.9V304.47H353.744V307.022H348.591V311.025H345.289V299.347H354.443V301.9H348.59H348.591Z" fill="#F5719E"/>
<path d="M357.562 310.575C356.783 310.174 356.176 309.619 355.737 308.907C355.298 308.195 355.078 307.389 355.078 306.487C355.078 305.585 355.298 304.797 355.737 304.085C356.176 303.373 356.782 302.819 357.554 302.425C358.326 302.03 359.202 301.832 360.18 301.832C361.158 301.832 362.037 302.03 362.813 302.425C363.592 302.819 364.196 303.369 364.63 304.077C365.064 304.784 365.281 305.587 365.281 306.487C365.281 307.387 365.064 308.195 364.63 308.907C364.196 309.619 363.59 310.174 362.813 310.575C362.035 310.976 361.158 311.175 360.18 311.175C359.202 311.175 358.34 310.976 357.562 310.575ZM361.547 308.08C361.903 307.697 362.08 307.165 362.08 306.487C362.08 305.809 361.901 305.296 361.547 304.918C361.191 304.54 360.735 304.351 360.18 304.351C359.625 304.351 359.168 304.541 358.813 304.918C358.457 305.296 358.28 305.818 358.28 306.487C358.28 307.156 358.457 307.697 358.813 308.08C359.168 308.463 359.625 308.656 360.18 308.656C360.735 308.656 361.191 308.465 361.547 308.08Z" fill="#F5719E"/>
<path d="M376.257 301.982V311.025H373.238V310.058C372.905 310.425 372.505 310.703 372.037 310.893C371.57 311.081 371.075 311.177 370.554 311.177C369.386 311.177 368.456 310.832 367.76 310.142C367.065 309.453 366.719 308.418 366.719 307.039V301.984H369.887V306.522C369.887 307.201 370.015 307.695 370.27 308.007C370.525 308.318 370.898 308.474 371.386 308.474C371.875 308.474 372.296 308.299 372.612 307.949C372.929 307.598 373.087 307.062 373.087 306.339V301.984H376.255L376.257 301.982Z" fill="#F5719E"/>
<path d="M386.876 302.833C387.561 303.5 387.902 304.508 387.902 305.853V311.025H384.734V306.371C384.734 305.135 384.239 304.519 383.25 304.519C382.706 304.519 382.269 304.698 381.941 305.052C381.612 305.408 381.449 305.943 381.449 306.653V311.024H378.281V301.981H381.299V302.966C381.655 302.599 382.078 302.318 382.566 302.123C383.056 301.928 383.589 301.831 384.166 301.831C385.289 301.831 386.192 302.164 386.875 302.832L386.876 302.833Z" fill="#F5719E"/>
<path d="M399.63 298.645V311.025H396.611V310.125C396.023 310.826 395.139 311.175 393.96 311.175C393.137 311.175 392.387 310.984 391.709 310.599C391.031 310.216 390.495 309.667 390.1 308.955C389.706 308.243 389.508 307.419 389.508 306.486C389.508 305.552 389.706 304.731 390.1 304.024C390.494 303.319 391.031 302.776 391.709 302.398C392.387 302.019 393.137 301.831 393.96 301.831C395.039 301.831 395.871 302.142 396.461 302.765V298.643H399.63V298.645ZM395.978 308.08C396.334 307.697 396.511 307.166 396.511 306.487C396.511 305.809 396.335 305.296 395.986 304.918C395.637 304.54 395.182 304.351 394.627 304.351C394.072 304.351 393.616 304.541 393.26 304.918C392.904 305.296 392.727 305.818 392.727 306.487C392.727 307.156 392.904 307.697 393.26 308.08C393.616 308.463 394.072 308.657 394.627 308.657C395.182 308.657 395.622 308.465 395.978 308.08Z" fill="#F5719E"/>
<path d="M354.088 320.272H303.87C303.32 320.272 302.875 320.718 302.875 321.269C302.875 321.819 303.32 322.265 303.87 322.265H354.088C354.639 322.265 355.084 321.819 355.084 321.269C355.084 320.718 354.639 320.272 354.088 320.272Z" fill="#FAA7C5"/>
<path d="M354.088 320.272H303.87C303.32 320.272 302.875 320.718 302.875 321.269C302.875 321.819 303.32 322.265 303.87 322.265H354.088C354.639 322.265 355.084 321.819 355.084 321.269C355.084 320.718 354.639 320.272 354.088 320.272Z" fill="#FAA7C5"/>
<path d="M240.175 197.115V168.527H195.284V197.115H161.19L229.61 98.8611H180.394L105.008 203.843V234.842H193.84V267.032H240.174V234.842H265.144V197.117H240.174L240.175 197.115Z" fill="#DC2655"/>
<path d="M413.395 135.974C407.075 122.76 398.314 112.712 387.112 105.822C375.904 98.9408 363.18 95.4929 348.936 95.4929C334.692 95.4929 321.72 98.9408 310.518 105.822C299.318 112.712 290.549 122.759 284.227 135.974C277.907 149.188 274.75 164.845 274.75 182.942C274.75 201.039 277.907 216.695 284.227 229.909C290.548 243.123 299.317 253.18 310.518 260.061C321.718 266.951 334.53 270.391 348.936 270.391C363.343 270.391 375.904 266.951 387.112 260.061C398.312 253.18 407.073 243.125 413.395 229.909C419.715 216.695 422.88 201.047 422.88 182.942C422.88 164.837 419.715 149.188 413.395 135.974ZM368.02 219.82C363.301 227.588 356.94 231.472 348.936 231.472C340.933 231.472 334.329 227.588 329.61 219.82C324.883 212.053 322.524 199.757 322.524 182.942C322.524 166.127 324.883 153.838 329.61 146.071C334.329 138.303 340.77 134.42 348.936 134.42C357.102 134.42 363.301 138.303 368.02 146.071C372.739 153.838 375.106 166.127 375.106 182.942C375.106 199.757 372.739 212.053 368.02 219.82Z" fill="#DC2655"/>
<path d="M572.691 197.115V168.527H527.791V197.115H493.706L526.687 149.753L555.668 108.137L562.126 98.8625H512.909L437.523 203.845V234.843H526.348V267.034H572.689V234.843H597.659V197.118H572.689L572.691 197.115Z" fill="#DC2655"/>
<path d="M238.224 265.161H190.277V232.969H101.445V200.913L177.224 95.3813H228.396L159.971 193.64H191.716V165.051H238.222V193.64H263.191V232.969H238.222V265.161H238.224ZM191.887 263.549H236.613V231.357H261.581V195.251H236.613V166.661H193.328V195.251H156.888L225.312 96.9919H178.05L103.056 201.432V231.357H191.889V263.549H191.887Z" fill="#FAA7C5"/>
<path d="M345.123 263.688C330.629 263.688 317.562 260.173 306.289 253.239C295.004 246.306 286.056 236.048 279.695 222.75C273.349 209.494 270.133 193.575 270.133 175.434C270.133 157.294 273.35 141.376 279.695 128.119C286.053 114.827 295.001 104.569 306.289 97.6303C317.57 90.6961 330.637 87.1811 345.123 87.1811C359.609 87.1811 372.432 90.6961 383.718 97.6303C395.001 104.569 403.949 114.827 410.312 128.119C416.657 141.383 419.874 157.301 419.874 175.434C419.874 193.568 416.657 209.486 410.312 222.75C403.946 236.048 394.998 246.306 383.718 253.239C372.44 260.171 359.455 263.688 345.123 263.688ZM345.123 88.7917C330.938 88.7917 318.156 92.2269 307.131 99.0031C296.111 105.778 287.369 115.807 281.146 128.815C274.906 141.852 271.742 157.537 271.742 175.434C271.742 193.332 274.907 209.017 281.146 222.054C287.373 235.067 296.114 245.098 307.131 251.866C318.149 258.642 330.932 262.077 345.123 262.077C359.314 262.077 371.854 258.642 382.876 251.867C393.888 245.099 402.631 235.068 408.861 222.055C415.1 209.012 418.265 193.326 418.265 175.436C418.265 157.547 415.101 141.862 408.861 128.817C402.634 115.809 393.891 105.779 382.876 99.0047C371.848 92.2285 359.145 88.7933 345.123 88.7933V88.7917ZM345.123 224.769C336.694 224.769 329.96 220.718 325.108 212.73C320.33 204.875 317.908 192.326 317.908 175.434C317.908 158.543 320.332 145.999 325.108 138.139C329.962 130.151 336.696 126.1 345.123 126.1C353.551 126.1 360.04 130.151 364.898 138.139C369.675 146.005 372.097 158.554 372.097 175.434C372.097 192.315 369.674 204.868 364.898 212.73C360.042 220.718 353.39 224.769 345.123 224.769ZM345.123 127.711C337.297 127.711 331.026 131.5 326.484 138.975C321.863 146.579 319.52 158.846 319.52 175.433C319.52 192.02 321.863 204.292 326.484 211.892C331.024 219.366 337.295 223.157 345.123 223.157C352.951 223.157 358.914 219.473 363.523 211.892C368.144 204.286 370.487 192.018 370.487 175.433C370.487 158.848 368.144 146.585 363.523 138.975C358.978 131.502 352.787 127.711 345.123 127.711Z" fill="#FAA7C5"/>
<path d="M569.694 260.324H521.746V228.132H432.914V196.076L433.066 195.865L508.694 90.5444H559.868L558.985 91.8103L491.443 188.803H523.187V160.214H569.693V188.803H594.661V228.132H569.693V260.324H569.694ZM523.357 258.712H568.083V226.52H593.052V190.414H568.083V161.825H524.798V190.414H488.358L489.24 189.148L556.782 92.1551H509.52L434.525 196.595V226.52H523.357V258.712Z" fill="#FAA7C5"/>
<path d="M240.167 197.115V168.527H195.276V197.115H161.183L229.602 98.8611H180.386L105 203.843V234.842H193.832V267.032H240.166V234.842H265.136V197.117H240.166L240.167 197.115Z" fill="#DC2655"/>
<path d="M413.387 135.974C407.067 122.76 398.306 112.712 387.104 105.822C375.896 98.9408 363.172 95.4929 348.929 95.4929C334.685 95.4929 321.712 98.9408 310.511 105.822C299.31 112.712 290.541 122.759 284.219 135.974C277.899 149.188 274.742 164.845 274.742 182.942C274.742 201.039 277.899 216.695 284.219 229.909C290.54 243.123 299.309 253.18 310.511 260.061C321.711 266.951 334.522 270.391 348.929 270.391C363.335 270.391 375.896 266.951 387.104 260.061C398.304 253.18 407.065 243.125 413.387 229.909C419.707 216.695 422.872 201.047 422.872 182.942C422.872 164.837 419.707 149.188 413.387 135.974ZM368.012 219.82C363.294 227.588 356.932 231.472 348.929 231.472C340.925 231.472 334.321 227.588 329.602 219.82C324.876 212.053 322.516 199.757 322.516 182.942C322.516 166.127 324.876 153.838 329.602 146.071C334.321 138.303 340.763 134.42 348.929 134.42C357.095 134.42 363.294 138.303 368.012 146.071C372.731 153.838 375.098 166.127 375.098 182.942C375.098 199.757 372.731 212.053 368.012 219.82Z" fill="#DC2655"/>
<path d="M572.683 197.115V168.527H527.784V197.115H493.698L526.68 149.753L555.66 108.137L562.118 98.8625H512.902L437.516 203.845V234.843H526.34V267.034H572.681V234.843H597.652V197.118H572.681L572.683 197.115Z" fill="#DC2655"/>
<path d="M238.216 265.161H190.27V232.969H101.438V200.913L177.216 95.3813H228.388L159.963 193.64H191.709V165.051H238.214V193.64H263.183V232.969H238.214V265.161H238.216ZM191.879 263.549H236.605V231.357H261.573V195.251H236.605V166.661H193.32V195.251H156.88L225.304 96.9919H178.042L103.049 201.432V231.357H191.881V263.549H191.879Z" fill="#FAA7C5"/>
<path d="M345.115 263.688C330.621 263.688 317.554 260.173 306.281 253.239C294.996 246.306 286.049 236.048 279.687 222.75C273.341 209.494 270.125 193.575 270.125 175.434C270.125 157.294 273.343 141.376 279.687 128.119C286.045 114.827 294.993 104.569 306.281 97.6303C317.562 90.6961 330.629 87.1811 345.115 87.1811C359.602 87.1811 372.424 90.6961 383.71 97.6303C394.993 104.569 403.941 114.827 410.305 128.119C416.649 141.383 419.866 157.301 419.866 175.434C419.866 193.568 416.649 209.486 410.305 222.75C403.938 236.048 394.99 246.306 383.71 253.239C372.432 260.171 359.447 263.688 345.115 263.688ZM345.115 88.7917C330.931 88.7917 318.148 92.2269 307.123 99.0031C296.103 105.778 287.362 115.807 281.138 128.815C274.898 141.852 271.735 157.537 271.735 175.434C271.735 193.332 274.9 209.017 281.138 222.054C287.365 235.067 296.107 245.098 307.123 251.866C318.142 258.642 330.924 262.077 345.115 262.077C359.307 262.077 371.847 258.642 382.868 251.867C393.88 245.099 402.623 235.068 408.853 222.055C415.092 209.012 418.257 193.326 418.257 175.436C418.257 157.547 415.093 141.862 408.853 128.817C402.627 115.809 393.883 105.779 382.868 99.0047C371.84 92.2285 359.137 88.7933 345.115 88.7933V88.7917ZM345.115 224.769C336.686 224.769 329.953 220.718 325.1 212.73C320.322 204.875 317.901 192.326 317.901 175.434C317.901 158.543 320.324 145.999 325.1 138.139C329.954 130.151 336.688 126.1 345.115 126.1C353.543 126.1 360.032 130.151 364.89 138.139C369.668 146.005 372.089 158.554 372.089 175.434C372.089 192.315 369.666 204.868 364.89 212.73C360.034 220.718 353.382 224.769 345.115 224.769ZM345.115 127.711C337.289 127.711 331.018 131.5 326.477 138.975C321.855 146.579 319.512 158.846 319.512 175.433C319.512 192.02 321.855 204.292 326.477 211.892C331.017 219.366 337.288 223.157 345.115 223.157C352.943 223.157 358.906 219.473 363.515 211.892C368.136 204.286 370.48 192.018 370.48 175.433C370.48 158.848 368.136 146.585 363.515 138.975C358.97 131.502 352.779 127.711 345.115 127.711Z" fill="#FAA7C5"/>
<path d="M569.686 260.324H521.738V228.132H432.906V196.076L433.058 195.865L508.686 90.5444H559.86L558.978 91.8103L491.435 188.803H523.179V160.214H569.685V188.803H594.653V228.132H569.685V260.324H569.686ZM523.35 258.712H568.075V226.52H593.044V190.414H568.075V161.825H524.79V190.414H488.35L489.232 189.148L556.775 92.1551H509.513L434.517 196.595V226.52H523.35V258.712Z" fill="#FAA7C5"/>
<path d="M576.477 152.226C576.477 152.226 577.442 154.469 576.846 154.469C576.249 154.469 575.059 151.838 574.491 151.621L574.32 151.546L574.39 150.879L575.341 150.766L576.475 152.228L576.477 152.226Z" fill="#364F6B"/>
<path d="M571.609 147.563L573.056 148.521C573.056 148.521 573.414 148.587 573.878 148.7C574.613 148.872 575.621 149.157 575.91 149.458C576.378 149.948 577.548 150.713 578.356 150.63C579.163 150.544 578.59 149.52 578.399 149.57C578.207 149.616 576.717 148.5 576.866 147.712C577.014 146.923 579.523 147.413 579.504 149.182C579.332 151.808 580.268 151.331 580.268 151.331C580.906 151.268 580.632 147.731 580.632 147.456C580.632 147.182 578.845 145.943 578.738 145.879C578.63 145.817 576.971 145.966 576.097 146.246C575.626 146.398 574.875 146.385 574.283 146.342C573.78 146.306 573.39 146.246 573.39 146.246L572.589 146.219L571.609 147.56V147.563Z" fill="#364F6B"/>
<path opacity="0.2" d="M571.609 147.563L573.056 148.521C573.056 148.521 573.414 148.587 573.878 148.7C573.718 147.439 573.977 146.736 574.285 146.345C573.782 146.309 573.391 146.25 573.391 146.25L572.59 146.222L571.611 147.563H571.609Z" fill="#1A1A1A"/>
<path d="M552.711 142.775L554.756 149.034C554.756 149.034 560.157 149.798 564.072 149.501C567.811 149.217 572.6 148.58 573.021 148.524C573.041 148.521 573.052 148.521 573.052 148.521C572.5 147.16 573.479 146.136 573.479 146.136C572.457 145.782 569.565 145.693 566.744 145.696H566.741C563.442 145.702 560.244 145.838 560.244 145.838C559.794 143.36 559.154 141.019 558.506 138.996C557.203 134.932 555.849 132.158 555.849 132.158H554.541L552.711 142.775Z" fill="#FAA7C5"/>
<path d="M573.21 188.811L572.331 192.925L569.07 192.784L569.627 187.628L573.21 188.811Z" fill="#364F6B"/>
<path d="M567.695 195.006C567.705 195.579 567.855 196.103 568.268 196.43C569.657 197.537 581.91 196.698 581.871 195.934C581.834 195.278 581.414 194.987 581.291 194.914C578.039 195.543 572.395 196.269 567.695 195.006Z" fill="#E1E1E1"/>
<path d="M567.696 195.006C572.396 196.267 578.038 195.543 581.292 194.914C581.273 194.904 581.259 194.898 581.259 194.898C581.259 194.898 578.006 192.914 573.095 191.662C573.095 191.662 571.783 192.997 568.438 191.973C568.438 191.973 567.664 193.635 567.696 195.006Z" fill="#1A1A1A"/>
<path d="M567.703 195.006C567.713 195.579 567.863 196.103 568.276 196.43C569.665 197.536 581.918 196.698 581.878 195.934C581.842 195.278 581.422 194.987 581.299 194.914C578.047 195.543 572.403 196.269 567.703 195.006Z" fill="#E1E1E1"/>
<path d="M567.704 195.006C572.404 196.267 578.046 195.543 581.3 194.914C581.281 194.904 581.267 194.898 581.267 194.898C581.267 194.898 578.014 192.914 573.102 191.662C573.102 191.662 571.791 192.997 568.446 191.973C568.446 191.973 567.672 193.635 567.704 195.006Z" fill="#1A1A1A"/>
<path d="M568.503 191.143C568.503 191.143 568.774 190.928 569.294 190.739C569.575 190.634 569.932 190.537 570.36 190.494C571.012 190.417 571.829 190.46 572.796 190.762C573.11 190.861 573.437 190.987 573.782 191.143C573.782 191.143 574.758 188.203 575.821 184.514C576.945 180.6 578.17 175.843 578.432 172.863C578.432 172.863 577.598 170.524 575.208 168.68C573.854 167.633 572.005 166.749 569.526 166.535C569.526 166.535 569.242 169.592 568.95 173.639C568.533 179.478 568.103 187.376 568.503 191.145V191.143Z" fill="#FAA7C5"/>
<path opacity="0.2" d="M568.503 191.143C568.503 191.143 568.774 190.928 569.294 190.739C569.575 190.634 569.932 190.537 570.36 190.494C570.483 185.113 573.342 174.855 575.208 168.679C573.854 167.632 572.005 166.747 569.526 166.533C569.526 166.533 569.242 169.59 568.95 173.637C568.533 179.476 568.103 187.374 568.503 191.143Z" fill="#1A1A1A"/>
<path d="M547.963 134.71L554.088 135.164C554.088 135.164 554.201 130.362 553.287 129.743C553.118 129.629 553.01 129.497 552.943 129.351C552.641 128.716 553.181 127.891 553.181 127.891L553.187 127.897C553.303 128.036 555.334 130.454 556.245 130.039C557.178 129.615 557.178 127.442 557.178 127.442C557.178 127.442 558.965 128.336 558.711 127.058C558.456 125.782 558.966 123.014 559.648 121.822C559.734 121.673 559.804 121.501 559.86 121.313C560.426 119.455 559.475 117.474 557.732 116.613C549.888 112.752 549.362 120.379 549.464 123.895C549.577 127.726 548.414 128.293 548.414 128.293L547.961 134.709L547.963 134.71Z" fill="#364F6B"/>
<path d="M586.142 186.749L588.462 190.258L586.078 192.489L582.789 188.481L586.142 186.749Z" fill="#364F6B"/>
<path d="M586.508 194.312C586.851 194.666 587.253 194.909 587.706 194.871C589.232 194.748 596.451 186.999 595.975 186.541C595.567 186.15 595.13 186.214 595.01 186.241C593.334 188.554 590.209 192.337 586.508 194.312Z" fill="#E1E1E1"/>
<path d="M586.508 194.312C586.851 194.666 587.253 194.909 587.706 194.871C589.232 194.748 596.451 186.999 595.975 186.541C595.567 186.15 595.13 186.214 595.01 186.241C593.334 188.554 590.209 192.337 586.508 194.312Z" fill="#E1E1E1"/>
<path d="M586.505 194.312C590.206 192.336 593.331 188.554 595.008 186.241C594.99 186.246 594.977 186.251 594.977 186.251C594.977 186.251 591.761 186.92 587.934 189.027C587.934 189.027 587.895 190.639 585.188 191.967C585.188 191.967 585.679 193.469 586.507 194.314L586.505 194.312Z" fill="#1A1A1A"/>
<path d="M586.505 194.312C590.206 192.336 593.331 188.554 595.008 186.241C594.99 186.246 594.977 186.251 594.977 186.251C594.977 186.251 591.761 186.919 587.934 189.027C587.934 189.027 587.895 190.639 585.188 191.967C585.188 191.967 585.679 193.469 586.507 194.313L586.505 194.312Z" fill="#1A1A1A"/>
<path d="M551.655 169.258C564.762 171.726 571.824 171.046 571.824 171.046C571.824 171.046 576.08 182.372 584.251 190.546C584.251 190.546 584.264 190.463 584.304 190.328C584.473 189.748 585.114 188.214 587.177 188.318C587.259 188.318 587.346 188.324 587.435 188.334C587.435 188.334 583.992 170.109 577.867 164.489C577.867 164.489 564.591 160.23 556.762 159.124C552.946 158.581 549.878 158.041 547.736 157.633C545.482 157.199 544.25 156.908 544.25 156.908C544.25 156.908 538.547 166.787 551.654 169.257L551.655 169.258Z" fill="#FAA7C5"/>
<path opacity="0.2" d="M552.711 142.775L554.756 149.034C554.756 149.034 560.157 149.798 564.072 149.501C567.987 149.203 573.052 148.521 573.052 148.521C570.172 146.928 559.861 146.925 559.861 146.925C559.861 146.925 559.69 145.867 559.266 144.159C559.089 143.448 558.583 140.757 558.506 138.996C557.203 134.932 555.849 132.158 555.849 132.158H554.541L552.711 142.775Z" fill="#1A1A1A"/>
<path opacity="0.2" d="M551.648 169.258C564.754 171.726 571.816 171.046 571.816 171.046C571.816 171.046 576.072 182.372 584.243 190.546C583.919 190.069 583.605 189.592 583.3 189.113C583.155 188.885 583.012 188.659 582.873 188.431C576.723 178.48 574.78 168.776 574.78 168.776C574.78 168.776 552.385 168.607 548.301 165.199C545.835 163.143 546.675 159.89 547.728 157.634C545.474 157.2 544.243 156.91 544.243 156.91C544.243 156.91 538.54 166.789 551.646 169.258H551.648Z" fill="#1A1A1A"/>
<path d="M562.707 114.726C563.19 114.648 563.602 115.066 563.492 115.545C563.069 117.363 561.811 120.719 558.437 119.241C553.898 117.253 553.046 118.53 552.991 119.978C552.991 119.978 552.254 118.077 551.091 119.354C550.317 120.091 553.53 124.208 550.778 124.35C548.026 124.492 546.977 118.532 546.977 117.679C546.977 116.827 547.061 111.293 551.714 111.69C555.985 112.056 559.108 115.314 562.709 114.726H562.707Z" fill="black"/>
<path d="M541.439 158.188C541.439 158.188 545.864 160.884 551.424 160.034C552.486 160.104 553.422 160.259 554.279 160.388C555.501 160.57 556.552 160.696 557.553 160.431C559.253 159.978 559.366 160.147 559.028 157.706C558.816 156.196 558.323 152.659 557.923 149.149C557.677 146.989 557.47 144.84 557.38 143.174C557.155 138.801 556.361 132.782 555.852 132.159C555.338 131.534 554.078 129.888 553.432 129.888C553.432 129.888 551.824 132.088 548.884 127.739C548.884 127.739 546.997 128.726 546.544 129.803C546.091 130.882 544.955 133.807 544.955 135.168C544.955 136.53 546.033 149.164 541.438 158.191L541.439 158.188Z" fill="#FC5185"/>
<path d="M566.857 159.764L579.831 155.538C580.506 155.318 581.153 155.941 580.96 156.625L578.944 163.783C578.812 164.251 578.328 164.527 577.859 164.401L566.902 161.469C566.047 161.24 566.015 160.038 566.855 159.764H566.857Z" fill="#FAA7C5"/>
<path opacity="0.2" d="M566.906 161.469L577.864 164.401C578.333 164.527 578.816 164.252 578.949 163.783L580.965 156.625C581.147 155.982 580.585 155.395 579.955 155.508C579.542 158.875 576.675 161.483 573.199 161.483C571.236 161.483 569.467 160.651 568.225 159.322L566.863 159.765C566.022 160.04 566.054 161.24 566.909 161.469H566.906Z" fill="#1A1A1A"/>
<path d="M584.953 138.144C584.987 138.019 585.114 137.944 585.24 137.976L586.207 138.222C586.335 138.254 586.411 138.386 586.378 138.514L581.964 154.764L580.539 154.402L584.955 138.144H584.953Z" fill="#1A1A1A"/>
<path d="M563.346 161.047L582.934 154.683C583.045 154.646 583.106 154.526 583.071 154.415L582.73 153.361C582.693 153.249 582.573 153.189 582.462 153.224L562.874 159.588C562.762 159.625 562.701 159.744 562.737 159.856L563.078 160.91C563.115 161.022 563.234 161.082 563.346 161.047Z" fill="#1A1A1A"/>
<path d="M571.458 157.844L581.359 154.626L581.244 154.27L571.342 157.487L571.458 157.844Z" fill="#E1E1E1"/>
<path d="M569.244 158.565L570.242 158.241L570.126 157.884L569.128 158.208L569.244 158.565Z" fill="#E1E1E1"/>
<path d="M567.814 159.03L568.812 158.706L568.697 158.349L567.698 158.674L567.814 159.03Z" fill="#E1E1E1"/>
<path d="M581.977 154.206C582.006 154.296 582.102 154.345 582.191 154.317C582.281 154.288 582.331 154.192 582.302 154.102C582.273 154.012 582.177 153.963 582.087 153.992C581.998 154.02 581.948 154.116 581.977 154.206Z" fill="#E1E1E1"/>
<path d="M570.352 150.544C570.352 150.544 571.784 151.493 571.861 151.619C571.888 151.659 572.135 151.755 572.499 151.872C572.899 151.998 573.435 152.143 573.968 152.266C573.998 152.272 574.024 152.282 574.048 152.285C574.075 152.292 574.097 152.295 574.121 152.301C574.137 152.304 574.145 152.304 574.145 152.304C574.545 152.394 574.93 152.464 575.244 152.499C576.393 152.628 577.31 153.757 577.733 153.979C578.16 154.204 578.543 154.204 578.924 154.059C579.152 153.972 578.068 153.082 577.15 152.37C578.05 153.011 579.248 153.79 579.953 153.926C580.095 153.953 580.218 153.953 580.314 153.923C581.247 153.618 579.097 152.201 577.693 151.118C576.621 150.29 574.068 149.291 572.917 148.863C572.556 148.727 572.331 148.647 572.331 148.647L570.584 149.2L570.353 150.54L570.352 150.544Z" fill="#364F6B"/>
<path opacity="0.2" d="M570.352 150.544C570.352 150.544 571.784 151.493 571.861 151.62C571.888 151.659 572.135 151.755 572.499 151.872C572.899 151.998 573.435 152.143 573.968 152.266C573.641 152.161 572.942 151.809 572.567 150.651C572.318 149.872 572.583 149.27 572.915 148.866C572.555 148.73 572.33 148.65 572.33 148.65L570.583 149.203L570.352 150.544Z" fill="#1A1A1A"/>
<path opacity="0.2" d="M546.977 142.149C549.33 150.438 553.338 153.369 553.999 155.992C554.267 157.052 554.319 158.747 554.283 160.386C555.505 160.568 556.556 160.694 557.556 160.429C559.257 159.976 559.37 160.145 559.032 157.705C558.82 156.195 558.327 152.657 557.926 149.147C557.735 148.931 557.585 148.753 557.499 148.617C556.704 147.372 552.815 139.311 552.716 138.343C552.617 137.379 551.938 134.71 551.938 134.71L547.245 132.972C547.245 132.972 544.617 133.859 546.973 142.149H546.977Z" fill="#1A1A1A"/>
<path d="M546.598 136.753C546.758 137.416 546.986 138.137 547.27 138.896C549.62 145.198 555.689 154.057 555.689 154.057C561.094 154.183 571.86 151.619 571.86 151.619C570.946 150.221 571.784 149.169 572.165 148.794C572.264 148.698 572.331 148.649 572.331 148.649C571.881 148.417 571.189 148.242 570.351 148.116C566.382 147.512 559.178 147.94 559.178 147.94C559.178 147.94 555.055 137.548 553.992 134.255C552.933 130.964 545.126 130.566 546.598 136.752V136.753Z" fill="#FAA7C5"/>
<path opacity="0.2" d="M552.95 129.351C552.649 128.716 553.188 127.891 553.188 127.891C553.188 127.891 552.32 126.735 551.953 125.555C551.953 125.555 551.732 128.307 552.949 129.351H552.95Z" fill="#1A1A1A"/>
<path d="M94.8597 173.343H116.403L115.778 171.132H94.2344L94.8597 173.343Z" fill="#FAA7C5"/>
<path d="M98.766 187.162H120.31L119.684 184.951H98.1406L98.766 187.162Z" fill="#FAA7C5"/>
<path d="M102.672 200.981H124.214L123.59 198.77H102.047L102.672 200.981Z" fill="#FAA7C5"/>
<path d="M102.672 200.981H124.214L123.59 198.77H102.047L102.672 200.981Z" fill="#FAA7C5"/>
<path d="M106.577 214.8H128.12L127.495 212.589H105.953L106.577 214.8Z" fill="#FAA7C5"/>
<path d="M106.577 214.8H128.12L127.495 212.589H105.953L106.577 214.8Z" fill="#FAA7C5"/>
<path d="M110.485 228.619H132.028L131.403 226.406H109.859L110.485 228.619Z" fill="#FAA7C5"/>
<path d="M110.485 228.619H132.028L131.403 226.406H109.859L110.485 228.619Z" fill="#FAA7C5"/>
<path d="M114.391 242.438H135.935L135.309 240.225H113.766L114.391 242.438Z" fill="#FAA7C5"/>
<path d="M114.391 242.438H135.935L135.309 240.225H113.766L114.391 242.438Z" fill="#FAA7C5"/>
<path d="M118.297 256.257H139.841L139.215 254.044H117.672L118.297 256.257Z" fill="#FAA7C5"/>
<path d="M118.297 256.257H139.841L139.215 254.044H117.672L118.297 256.257Z" fill="#FAA7C5"/>
<path d="M142.019 271.872H146.484L116.379 165.373H111.914L142.019 271.872Z" fill="#FAA7C5"/>
<path d="M142.027 271.872H146.492L116.387 165.373H111.922L142.027 271.872Z" fill="#FAA7C5"/>
<path d="M120.48 271.872H124.945L94.8401 165.373H90.375L120.48 271.872Z" fill="#FAA7C5"/>
<path d="M120.48 271.872H124.945L94.8401 165.373H90.375L120.48 271.872Z" fill="#FAA7C5"/>
<path d="M112.546 171.13L111.92 173.341H90.375L91.0003 171.13H112.546Z" fill="#FAA7C5"/>
<path d="M108.635 184.949L108.011 187.162H86.4688L87.0941 184.949H108.635Z" fill="#FAA7C5"/>
<path d="M104.733 198.77L104.108 200.981H82.5625L83.1878 198.77H104.733Z" fill="#FAA7C5"/>
<path d="M104.733 198.77L104.108 200.981H82.5625L83.1878 198.77H104.733Z" fill="#FAA7C5"/>
<path d="M100.822 212.591L100.198 214.798H78.6562L79.2816 212.591H100.822Z" fill="#FAA7C5"/>
<path d="M100.822 212.59L100.198 214.798H78.6562L79.2816 212.59H100.822Z" fill="#FAA7C5"/>
<path d="M96.9111 226.406L96.2874 228.617H74.7422L75.3707 226.406H96.9111Z" fill="#FAA7C5"/>
<path d="M96.919 226.406L96.2952 228.617H74.75L75.3785 226.406H96.919Z" fill="#FAA7C5"/>
<path d="M93.0143 240.227L92.389 242.438H70.8438L71.4691 240.227H93.0143Z" fill="#FAA7C5"/>
<path d="M93.0143 240.227L92.389 242.438H70.8438L71.4691 240.227H93.0143Z" fill="#FAA7C5"/>
<path d="M89.1033 254.046L88.4795 256.257H66.9375L67.5628 254.046H89.1033Z" fill="#FAA7C5"/>
<path d="M89.1033 254.046L88.4795 256.257H66.9375L67.5628 254.046H89.1033Z" fill="#FAA7C5"/>
<g style="mix-blend-mode:multiply" opacity="0.3">
<path d="M66.9375 256.257H71.2255L71.8508 254.046H67.5628L66.9375 256.257Z" fill="#1A1A1A"/>
<path d="M66.9375 256.257H71.2255L71.8508 254.046H67.5628L66.9375 256.257Z" fill="#1A1A1A"/>
<path d="M70.8438 242.438H75.1349L75.7603 240.227H71.4691L70.8438 242.438Z" fill="#1A1A1A"/>
<path d="M70.8438 242.437H75.1349L75.7603 240.227H71.4691L70.8438 242.437Z" fill="#1A1A1A"/>
<path d="M74.75 228.617H79.0412L79.6665 226.406H75.3785L74.75 228.617Z" fill="#1A1A1A"/>
<path d="M74.75 228.617H79.0412L79.6665 226.406H75.3785L74.75 228.617Z" fill="#1A1A1A"/>
<path d="M78.6562 214.798H82.9474L83.5696 212.591H79.2816L78.6562 214.798Z" fill="#1A1A1A"/>
<path d="M78.6562 214.798H82.9474L83.5696 212.59H79.2816L78.6562 214.798Z" fill="#1A1A1A"/>
<path d="M82.5625 200.981H86.8537L87.479 198.77H83.1878L82.5625 200.981Z" fill="#1A1A1A"/>
<path d="M82.5625 200.981H86.8537L87.479 198.77H83.1878L82.5625 200.981Z" fill="#1A1A1A"/>
<path d="M86.4688 187.162H90.7567L91.3821 184.949H87.0941L86.4688 187.162Z" fill="#1A1A1A"/>
<path d="M91.0003 171.13L90.375 173.341H94.6662L95.2915 171.13H91.0003Z" fill="#1A1A1A"/>
</g>
<g style="mix-blend-mode:multiply" opacity="0.3">
<path d="M83.5703 256.257H87.8583L88.4836 254.046H84.1957L83.5703 256.257Z" fill="#1A1A1A"/>
<path d="M83.5703 256.257H87.8583L88.4836 254.046H84.1957L83.5703 256.257Z" fill="#1A1A1A"/>
<path d="M87.4766 242.438H91.7677L92.3931 240.227H88.1019L87.4766 242.438Z" fill="#1A1A1A"/>
<path d="M87.4688 242.437H91.7599L92.3853 240.227H88.0941L87.4688 242.437Z" fill="#1A1A1A"/>
<path d="M91.3828 228.617H95.674L96.2993 226.406H92.0113L91.3828 228.617Z" fill="#1A1A1A"/>
<path d="M91.3828 228.617H95.674L96.2993 226.406H92.0113L91.3828 228.617Z" fill="#1A1A1A"/>
<path d="M95.2891 214.798H99.5802L100.202 212.591H95.9144L95.2891 214.798Z" fill="#1A1A1A"/>
<path d="M95.2891 214.798H99.5802L100.202 212.59H95.9144L95.2891 214.798Z" fill="#1A1A1A"/>
<path d="M99.1953 200.981H103.486L104.112 198.77H99.8207L99.1953 200.981Z" fill="#1A1A1A"/>
<path d="M99.1875 200.981H103.479L104.104 198.77H99.8128L99.1875 200.981Z" fill="#1A1A1A"/>
<path d="M103.102 187.162H107.39L108.015 184.949H103.727L103.102 187.162Z" fill="#1A1A1A"/>
<path d="M107.633 171.13L107.008 173.341H111.299L111.924 171.13H107.633Z" fill="#1A1A1A"/>
</g>
<path d="M64.7541 271.872H60.2891L90.3943 165.373H94.8594L64.7541 271.872Z" fill="#AD6989"/>
<path d="M64.7541 271.872H60.2891L90.3943 165.373H94.8594L64.7541 271.872Z" fill="#AD6989"/>
<path d="M86.2948 271.872H81.8281L111.935 165.373H116.4L86.2948 271.872Z" fill="#AD6989"/>
<path d="M86.2948 271.872H81.8281L111.935 165.373H116.4L86.2948 271.872Z" fill="#AD6989"/>
<path d="M119.817 160.951H86.9711C86.698 160.951 86.4766 161.173 86.4766 161.446V165.799C86.4766 166.072 86.698 166.294 86.9711 166.294H119.817C120.09 166.294 120.311 166.072 120.311 165.799V161.446C120.311 161.173 120.09 160.951 119.817 160.951Z" fill="#FAA7C5"/>
<path d="M105.939 192.486C105.939 192.486 101.11 195.284 92.8672 191.523C92.8672 191.523 96.4565 188.96 100.941 189.301C105.426 189.643 105.939 192.486 105.939 192.486Z" fill="black"/>
<path d="M105.939 192.486C105.939 192.486 101.11 195.284 92.8672 191.523C92.8672 191.523 96.4565 188.96 100.941 189.301C105.426 189.643 105.939 192.486 105.939 192.486Z" fill="black"/>
<path d="M89.7917 193.126C89.7917 193.126 83.8973 195.627 76.3359 190.048C76.3359 190.048 80.3081 186.073 84.0888 186.073C87.8695 186.073 89.7917 193.126 89.7917 193.126Z" fill="black"/>
<path d="M89.7917 193.126C89.7917 193.126 83.8973 195.627 76.3359 190.048C76.3359 190.048 80.3081 186.073 84.0888 186.073C87.8695 186.073 89.7917 193.126 89.7917 193.126Z" fill="black"/>
<path d="M85.4778 195.456C85.4778 195.456 86.888 191.033 87.1018 190.412C87.3156 189.793 82.4453 188.425 82.4453 188.425C82.4453 188.425 83.3418 192.827 82.9797 194.751C82.616 196.674 82.8728 197.166 82.8728 197.166L85.4778 195.456Z" fill="#364F6B"/>
<path d="M82.1658 198.727C82.4322 199.002 82.6156 199.096 82.7751 199.133C83.0511 199.198 90.9667 198.925 91.265 198.646C91.2969 198.615 91.4596 198.66 91.4947 198.623C91.7882 198.314 92.1599 197.781 92.1407 197.551C92.1216 197.294 86.1826 195.541 85.7774 195.008C85.7774 195.008 84.4326 193.854 82.9793 194.751C82.9793 194.751 82.6427 196.507 82.0318 197.706C81.9839 197.8 82.0812 198.114 82.0286 198.202C81.8786 198.449 81.9663 198.518 82.1673 198.726L82.1658 198.727Z" fill="#1A1A1A"/>
<path d="M81.9691 198.746C82.2355 199.021 82.5849 199.353 82.7444 199.39C83.0204 199.455 91.0939 199.005 91.3938 198.727C91.4257 198.697 91.4608 198.662 91.4959 198.625C89.4157 198.478 84.437 198.093 82.0314 197.707C81.9835 197.801 81.934 197.892 81.8814 197.978C81.7314 198.226 81.7665 198.539 81.9691 198.746Z" fill="#FEE2B3"/>
<path d="M85.4778 195.456C85.4778 195.456 86.888 191.033 87.1018 190.412C87.3156 189.793 82.4453 188.425 82.4453 188.425C82.4453 188.425 83.3418 192.827 82.9797 194.751C82.616 196.674 82.8728 197.166 82.8728 197.166L85.4778 195.456Z" fill="#364F6B"/>
<path d="M82.1658 198.727C82.4322 199.001 82.6156 199.096 82.7751 199.132C83.0511 199.198 90.9667 198.925 91.265 198.646C91.2969 198.615 91.4596 198.66 91.4947 198.623C91.7882 198.313 92.1599 197.78 92.1407 197.55C92.1216 197.293 86.1826 195.541 85.7774 195.008C85.7774 195.008 84.4326 193.853 82.9793 194.751C82.9793 194.751 82.6427 196.507 82.0318 197.705C81.9839 197.799 82.0812 198.114 82.0286 198.202C81.8786 198.449 81.9663 198.518 82.1673 198.725L82.1658 198.727Z" fill="#1A1A1A"/>
<path d="M81.9691 198.746C82.2355 199.021 82.5849 199.353 82.7444 199.389C83.0204 199.455 91.0939 199.005 91.3938 198.727C91.4257 198.697 91.4608 198.661 91.4959 198.625C89.4157 198.478 84.437 198.093 82.0314 197.707C81.9835 197.801 81.934 197.892 81.8814 197.978C81.7314 198.226 81.7665 198.539 81.9691 198.746Z" fill="#FEE2B3"/>
<path d="M102.103 194.966C102.103 194.966 103.998 190.728 104.279 190.136C104.56 189.544 99.8744 187.639 99.8744 187.639C99.8744 187.639 100.273 192.115 99.6989 193.986C99.123 195.857 99.3224 196.374 99.3224 196.374L102.103 194.966Z" fill="#364F6B"/>
<path d="M98.5047 197.819C98.7392 198.121 99.0024 198.352 99.1555 198.406C99.4235 198.502 107.039 198.992 107.368 198.748C107.403 198.722 107.687 198.82 107.727 198.786C108.054 198.512 108.481 198.023 108.488 197.793C108.497 197.536 102.791 195.129 102.448 194.555C102.448 194.555 101.24 193.257 99.6963 193.986C99.6963 193.986 99.1667 195.693 98.4249 196.816C98.3675 196.906 98.3084 196.989 98.2462 197.07C98.0708 197.299 98.3276 197.591 98.5047 197.819Z" fill="#1A1A1A"/>
<path d="M98.2494 197.843C98.4839 198.145 98.7934 198.513 98.9481 198.569C99.2161 198.665 107.288 199.121 107.617 198.877C107.652 198.852 107.69 198.82 107.73 198.788C105.678 198.409 100.775 197.471 98.4281 196.818C98.3706 196.907 98.3116 196.99 98.2494 197.072C98.0739 197.3 98.0723 197.616 98.2494 197.844V197.843Z" fill="#FEE2B3"/>
<path d="M102.103 194.966C102.103 194.966 103.998 190.728 104.279 190.136C104.56 189.544 99.8744 187.639 99.8744 187.639C99.8744 187.639 100.273 192.115 99.6989 193.986C99.123 195.857 99.3224 196.374 99.3224 196.374L102.103 194.966Z" fill="#364F6B"/>
<path d="M98.5047 197.819C98.7392 198.121 99.0024 198.352 99.1555 198.406C99.4235 198.502 107.039 198.992 107.368 198.748C107.403 198.722 107.687 198.82 107.727 198.786C108.054 198.512 108.481 198.023 108.488 197.793C108.497 197.536 102.791 195.129 102.448 194.554C102.448 194.554 101.24 193.257 99.6963 193.986C99.6963 193.986 99.1667 195.693 98.4249 196.816C98.3675 196.906 98.3084 196.989 98.2462 197.07C98.0708 197.298 98.3276 197.591 98.5047 197.819Z" fill="#1A1A1A"/>
<path d="M98.2494 197.843C98.4839 198.144 98.7934 198.513 98.9481 198.569C99.2161 198.665 107.288 199.121 107.617 198.877C107.652 198.852 107.69 198.82 107.73 198.788C105.678 198.409 100.775 197.471 98.4281 196.818C98.3706 196.907 98.3116 196.99 98.2494 197.072C98.0739 197.3 98.0723 197.616 98.2494 197.844V197.843Z" fill="#FEE2B3"/>
<path d="M123.584 130.699C123.584 130.699 126.276 135.828 122.901 140.232C122.901 140.232 120.722 136.94 121.532 134.418C122.343 131.896 122.601 131.168 123.584 130.699Z" fill="#FAA7C5"/>
<path d="M76.3359 190.05C85.5628 189.087 89.7917 193.127 89.7917 193.127C90.8526 191.375 92.0841 186.148 93.1162 180.909C94.0414 176.228 94.8087 171.536 95.1597 169.317C95.2937 168.479 95.3671 167.994 95.3671 167.994L96.9735 170.138L98.8271 172.61C98.6979 177.739 92.8673 191.523 92.8673 191.523C102.351 189.153 105.939 192.486 105.939 192.486C106.993 191.402 108.612 187.655 110.048 183.831C111.75 179.3 113.197 174.66 113.157 174.213C112.923 171.488 102.265 156.261 101.112 153.268C99.9582 150.277 99.529 147.882 99.529 147.882C99.4365 147.763 99.3424 147.648 99.2499 147.536C93.1146 140.193 84.5785 145.916 84.5785 145.916C84.5785 145.916 84.2371 161.559 83.5544 167.632C82.8716 173.701 76.3359 190.05 76.3359 190.05Z" fill="#1A1A1A"/>
<path d="M76.3438 190.05C85.5706 189.087 89.7995 193.127 89.7995 193.127C90.8604 191.375 92.0919 186.148 93.124 180.909C94.0492 176.228 94.8166 171.536 95.1675 169.317C95.3015 168.479 95.3749 167.994 95.3749 167.994L96.9813 170.138L98.8349 172.61C98.7057 177.739 92.8752 191.523 92.8752 191.523C102.359 189.153 105.946 192.486 105.946 192.486C107.001 191.402 108.62 187.655 110.056 183.831C111.758 179.3 113.205 174.66 113.165 174.213C112.93 171.488 102.273 156.261 101.119 153.268C99.966 150.277 99.5368 147.882 99.5368 147.882C99.4443 147.763 99.3502 147.648 99.2577 147.536C93.1224 140.193 84.5863 145.916 84.5863 145.916C84.5863 145.916 84.2449 161.559 83.5622 167.632C82.8794 173.701 76.3438 190.05 76.3438 190.05Z" fill="#1A1A1A"/>
<path d="M92.4492 120.099C92.4492 120.099 92.6135 121.605 91.6915 122.663C90.7662 123.723 91.3134 124.556 91.4554 124.668C91.6005 124.78 95.7817 124.875 95.7817 124.875L95.9938 124.374L96.2778 123.705L95.7497 123.112C95.7497 123.112 95.6333 122.982 95.5456 122.585C95.4786 122.283 95.4307 121.827 95.469 121.151C95.469 121.151 95.469 121.155 95.4722 121.156C95.4977 121.175 95.9188 121.546 96.5442 122.093C97.1073 122.586 98.0373 120.46 97.9942 119.458C97.9512 118.454 97.8874 118.066 97.8874 118.066C97.8874 118.066 98.2718 118.195 98.744 117.954C98.878 117.887 98.9434 117.732 98.886 117.593C98.7009 117.124 98.0963 116.307 98.3707 115.212C98.4026 115.082 98.4473 114.947 98.5079 114.808C98.886 113.928 95.4498 112.961 93.1064 113.309C91.8781 113.494 90.9513 114.037 91.0279 115.145C91.2528 118.366 92.4524 120.099 92.4524 120.099H92.4492Z" fill="#364F6B"/>
<g style="mix-blend-mode:multiply" opacity="0.3">
<path d="M76.3359 190.05C85.5628 189.087 89.7917 193.127 89.7917 193.127C90.8526 191.375 92.0841 186.148 93.1162 180.909C92.8817 181.048 92.6695 181.229 92.51 181.436C91.8895 182.247 91.6996 183.307 91.1716 184.179C90.4522 185.363 89.0787 186.118 87.6924 186.094C86.3077 186.069 84.9614 185.261 84.2882 184.053C82.9976 181.738 84.2355 178.909 85.223 176.453C86.9889 172.044 87.9141 167.301 87.9285 162.552C87.9365 159.936 87.6749 157.289 88.1933 154.723C88.7134 152.157 90.2065 149.598 92.6504 148.668C94.3876 148.005 96.2859 148.259 98.0806 147.892C98.4443 147.817 98.8399 147.697 99.2499 147.538C93.1146 140.195 84.5785 145.917 84.5785 145.917C84.5785 145.917 84.2371 161.561 83.5544 167.633C82.8716 173.702 76.3359 190.051 76.3359 190.051V190.05Z" fill="#1A1A1A"/>
</g>
<g style="mix-blend-mode:multiply" opacity="0.3">
<path d="M76.3438 190.05C85.5706 189.087 89.7995 193.127 89.7995 193.127C90.8604 191.375 92.0919 186.148 93.124 180.909C92.8895 181.048 92.6773 181.229 92.5178 181.436C91.8973 182.247 91.7074 183.307 91.1794 184.179C90.46 185.363 89.0865 186.118 87.7002 186.094C86.3156 186.069 84.9692 185.261 84.296 184.052C83.0055 181.738 84.2433 178.909 85.2308 176.453C86.9967 172.044 87.922 167.301 87.9363 162.552C87.9443 159.936 87.6827 157.289 88.2011 154.722C88.7212 152.157 90.2143 149.598 92.6582 148.668C94.3954 148.005 96.2937 148.259 98.0884 147.892C98.4521 147.817 98.8477 147.697 99.2577 147.538C93.1224 140.195 84.5863 145.917 84.5863 145.917C84.5863 145.917 84.2449 161.561 83.5622 167.633C82.8794 173.702 76.3438 190.051 76.3438 190.051V190.05Z" fill="#1A1A1A"/>
</g>
<path d="M92.2887 151.579C92.2887 151.579 89.5975 156.103 83.0938 156.038C83.0938 156.038 83.7334 152.893 87.8667 151.579C91.9999 150.266 92.2887 151.579 92.2887 151.579Z" fill="#FAA7C5"/>
<path d="M121.034 133.138C121.051 133.674 121.168 134.22 121.238 134.752C121.273 135.013 121.31 135.283 121.459 135.5C121.667 135.799 122.048 135.93 122.409 135.954C122.772 135.976 123.136 135.914 123.498 135.917C124.286 135.925 125.038 136.236 125.716 136.635C125.838 136.707 125.96 136.782 126.079 136.86C126.62 137.21 127.135 137.593 127.686 137.922C128.577 138.455 129.56 138.836 130.573 139.049C130.804 139.098 130.957 138.846 130.855 138.67C130.841 138.643 130.819 138.616 130.785 138.594C130.307 138.239 129.783 137.946 129.233 137.721C129.276 137.735 129.316 137.751 129.357 137.764C130.244 138.073 131.135 138.381 132.021 138.69C132.211 138.757 132.465 138.804 132.581 138.64C132.658 138.528 132.624 138.364 132.534 138.259C132.446 138.153 132.317 138.094 132.192 138.037C131.426 137.685 130.659 137.334 129.895 136.98C130.825 137.312 131.753 137.642 132.68 137.974C132.928 138.062 133.269 138.113 133.385 137.882C133.456 137.749 133.4 137.58 133.296 137.473C133.194 137.366 133.052 137.306 132.915 137.248C132.02 136.876 131.125 136.506 130.233 136.134C131.021 136.4 131.808 136.67 132.596 136.937C132.848 137.025 133.176 137.092 133.344 136.883C133.476 136.715 133.414 136.456 133.261 136.305C133.109 136.155 132.897 136.088 132.693 136.025C131.39 135.629 130.085 135.23 128.782 134.833C129.275 134.938 129.775 135.001 130.281 135.023C130.414 135.028 130.551 135.031 130.672 134.98C130.795 134.927 130.898 134.807 130.889 134.675C130.879 134.493 130.682 134.388 130.516 134.319C129.568 133.933 128.55 133.537 127.553 133.759C127.119 133.853 126.719 134.06 126.287 134.167C125.401 134.389 124.39 133.965 123.581 133.546C123.461 133.484 123.347 133.431 123.24 133.384C122.948 133.251 122.691 133.144 122.402 132.922C122.141 132.723 121.831 132.526 121.485 132.555C121.144 132.585 121.021 132.822 121.032 133.141L121.034 133.138Z" fill="#364F6B"/>
<g style="mix-blend-mode:multiply" opacity="0.3">
<path d="M121.032 133.138C121.049 133.674 121.166 134.22 121.236 134.751C121.271 135.013 121.308 135.283 121.458 135.5C121.665 135.799 122.047 135.93 122.407 135.953C122.771 135.976 123.134 135.914 123.497 135.917C124.285 135.925 125.036 136.236 125.714 136.635C125.837 136.707 125.958 136.782 126.078 136.86C125.749 136.306 125.148 135.958 124.597 135.606C123.997 135.221 123.377 134.731 123.253 134.027C123.216 133.814 123.227 133.597 123.24 133.38C122.948 133.248 122.691 133.141 122.402 132.919C122.141 132.719 121.831 132.523 121.485 132.552C121.144 132.582 121.021 132.818 121.032 133.138Z" fill="#1A1A1A"/>
</g>
<path d="M91.3757 159.62C91.3757 159.62 92.411 159.853 92.9662 159.223C92.9662 159.223 92.9869 158.945 92.6774 158.924C92.368 158.903 91.5129 159.245 90.8828 158.924V159.427L91.3741 159.622L91.3757 159.62Z" fill="#364F6B"/>
<path d="M91.1611 158.87C91.1611 158.87 92.2682 160.412 92.8297 160.573C93.3896 160.733 93.7422 160.814 93.8555 161.006C93.9177 161.111 93.9544 161.307 93.9751 161.464C93.9911 161.583 93.8906 161.686 93.7725 161.67C93.463 161.63 92.9063 161.532 92.5362 161.325C92.5362 161.325 91.3142 160.627 91.1611 160.281C91.0096 159.936 91.1611 158.868 91.1611 158.868V158.87Z" fill="#364F6B"/>
<path d="M92.1335 160.27C92.1335 160.27 93.1689 160.503 93.724 159.872C93.724 159.872 93.7447 159.595 93.4353 159.574C93.1258 159.553 92.2707 159.895 91.6406 159.574V160.077L92.1319 160.271L92.1335 160.27Z" fill="#364F6B"/>
<path d="M86.3047 151.966C86.3047 151.966 88.1488 154.908 88.7167 156.22C88.7933 156.397 88.8459 156.544 88.8682 156.649C89.0597 157.55 91.8306 163.025 92.0555 163.09C92.2804 163.156 92.298 162.465 92.298 162.16C92.298 162.054 92.0986 161.548 91.8577 160.905C91.7061 160.509 91.5418 160.059 91.3919 159.623C91.3249 159.421 91.2627 159.223 91.2052 159.033C91.1909 158.98 91.1749 158.927 91.1606 158.878V158.875C90.9867 158.249 90.9085 157.738 91.0665 157.575C91.5466 157.077 92.3315 158.311 92.3953 158.375C92.4607 158.44 93.1323 158.68 93.2775 158.6C93.4226 158.52 92.0762 156.453 91.9151 156.356C91.7556 156.262 90.6022 155.491 90.2832 155.168C90.0934 154.981 89.7632 153.304 89.5207 151.948C89.3516 150.994 89.224 150.2 89.224 150.2L86.3079 151.963L86.3047 151.966Z" fill="#364F6B"/>
<g style="mix-blend-mode:multiply" opacity="0.3">
<path d="M86.2985 151.966C86.2985 151.966 88.1426 154.908 88.7105 156.22C88.7376 156.108 88.7535 155.993 88.7551 155.882C88.7727 155.384 88.6259 154.9 88.5254 154.413C88.4265 153.925 88.3787 153.401 88.5828 152.948C88.7695 152.531 89.146 152.233 89.5097 151.953C89.3406 150.999 89.213 150.205 89.213 150.205L86.2969 151.968L86.2985 151.966Z" fill="#1A1A1A"/>
</g>
<path d="M80.3059 142.99C80.6281 144.655 83.5426 149.881 83.0943 156.038C83.0943 156.038 86.9388 151.196 92.2893 151.58L90.8743 148.044L90.0894 146.088C90.0894 146.088 94.789 145.36 99.5284 147.884C99.5284 147.884 98.9685 146.966 99.0483 145.132C99.0658 144.76 99.1073 144.352 99.187 143.908C99.3864 142.784 99.656 140.931 99.8969 139.095C100.221 136.61 100.495 134.153 100.47 133.564V133.554C100.47 133.257 101.149 133.522 102.102 134.033C104.3 135.226 107.945 137.754 107.945 137.754C107.945 137.754 122.938 140.359 122.895 140.233C122.851 140.105 121.699 132.838 123.578 130.7C123.578 130.7 121.841 130.466 119.437 130.221C116.714 129.945 113.133 129.653 110.25 129.675C110.25 129.675 101.152 125.314 99.144 124.631C97.1356 123.948 96.4097 123.113 95.7477 123.113C95.7477 123.113 95.5978 123.991 95.0873 123.903C94.5736 123.819 92.0516 122.687 91.691 122.665C91.5969 122.66 91.5443 122.673 91.5012 122.709C91.3848 122.802 91.3417 123.051 90.6015 123.477C89.5981 124.053 88.6585 123.991 87.612 124.888C86.5656 125.785 83.5952 130.531 80.3059 142.07C80.3059 142.07 79.9868 141.322 80.3059 142.99Z" fill="#FC5185"/>
<g style="mix-blend-mode:multiply" opacity="0.3">
<path d="M88.5098 141.77C88.5529 142.41 90.0891 146.088 90.0891 146.088C90.0891 146.088 94.7887 145.36 99.5281 147.884C99.5281 147.884 98.9682 146.966 99.048 145.132C97.3139 144.43 95.0966 144.063 93.0802 143.793C90.3045 143.424 90.8277 143.823 90.6028 141.344C90.3811 138.913 91.9077 130.553 91.9651 130.24C91.8487 130.604 88.4636 141.14 88.5083 141.77H88.5098Z" fill="#1A1A1A"/>
</g>
<g style="mix-blend-mode:multiply" opacity="0.3">
<path d="M95.5493 122.586C95.4823 122.285 95.4345 121.828 95.4728 121.153L94.5156 120.358C94.5156 120.358 94.7948 121.759 95.5493 122.586Z" fill="#1A1A1A"/>
</g>
<g style="mix-blend-mode:multiply" opacity="0.3">
<path d="M91.0738 115.714C91.4375 115.598 91.8618 115.686 92.2383 115.831C92.0214 115.531 91.8554 115.307 91.8554 115.307C91.8554 115.307 92.8253 113.674 93.1013 113.31C95.4463 112.961 98.8825 113.928 98.5028 114.809C98.4438 114.948 98.3975 115.084 98.3656 115.213C97.9843 115.405 97.4404 115.518 96.6762 115.435C94.2563 115.178 93.6006 114.761 93.5368 115.772C93.4762 116.714 93.9468 117.765 94.1271 118.126L94.1622 118.193C94.1622 118.193 93.6373 117.874 93.3342 117.505C92.8924 117.172 92.4058 116.867 92.2351 116.99C91.8937 117.236 92.46 118.272 92.6834 118.39C92.9083 118.508 92.5877 120.099 92.5877 120.099C92.5877 120.099 91.6592 118.934 91.6369 118.881C91.6162 118.829 90.1805 116 91.0738 115.716V115.714Z" fill="#1A1A1A"/>
</g>
<path d="M89.5797 114.907C89.5367 118.155 92.5915 120.101 92.5915 120.101L92.3666 118.869L92.3347 118.69C91.6073 118.414 91.2228 116.872 91.9056 116.552C92.5165 116.265 93.0494 117.05 93.1562 117.226C93.0366 116.996 92.3666 115.635 93.1658 114.736C94.0432 113.754 95.1519 115.058 98.2546 115.038C101.357 115.02 99.4686 110.014 99.4686 110.014C98.7635 111.127 97.2033 110.547 97.2033 110.547C97.9084 109.907 97.843 108.494 97.843 108.494C97.843 108.494 97.7808 108.605 97.6564 108.774C97.2161 109.387 95.9942 110.788 94.0432 110.804C91.5435 110.827 89.6196 111.66 89.5781 114.908L89.5797 114.907Z" fill="#1A1A1A"/>
<g style="mix-blend-mode:multiply" opacity="0.3">
<path d="M80.3059 142.99C80.6281 144.655 83.5426 149.881 83.0943 156.038C83.0943 156.038 86.9388 151.196 92.2893 151.58L90.8743 148.044C90.7626 148.079 90.6781 148.143 90.6222 148.246C89.7257 149.915 84.9209 149.755 84.7597 148.438C84.6002 147.124 82.9986 143.983 82.6796 142.027C82.3589 140.072 84.4742 135.679 85.0485 133.211C85.6244 130.743 87.3552 126.417 89.5008 125.005C91.648 123.594 91.5012 122.708 91.5012 122.708C91.3848 122.8 91.3417 123.049 90.6015 123.475C89.5981 124.052 88.6585 123.989 87.612 124.887C86.5656 125.784 83.5952 130.529 80.3059 142.069C80.3059 142.069 79.9868 141.32 80.3059 142.988V142.99Z" fill="#1A1A1A"/>
</g>
<g style="mix-blend-mode:multiply" opacity="0.3">
<path d="M100.265 127.777C101.795 129.58 104.859 133.021 106.963 134.29C109.868 136.043 110.753 136.043 113.215 136.171C115.547 136.294 120.658 135.341 119.439 130.221C121.843 130.466 123.581 130.7 123.581 130.7C121.701 132.838 122.853 140.106 122.898 140.233C122.941 140.361 107.947 137.754 107.947 137.754C107.947 137.754 104.302 135.226 102.104 134.033C101.152 133.522 100.472 133.257 100.472 133.554C100.467 133.315 100.352 128.94 99.3235 126.647C99.3203 126.644 99.3203 126.643 99.3203 126.643C99.3506 126.665 99.759 126.962 100.265 127.777Z" fill="#1A1A1A"/>
</g>
<g style="mix-blend-mode:multiply" opacity="0.3">
<path d="M91.5016 122.708C91.5016 122.708 95.8119 125.761 96.1533 124.874C96.4947 123.986 95.7465 123.111 95.7465 123.111C95.7465 123.111 95.5966 123.989 95.0861 123.902C94.5724 123.817 92.0504 122.685 91.6898 122.663C91.5957 122.658 91.5431 122.671 91.5 122.708H91.5016Z" fill="#1A1A1A"/>
</g>
<g style="mix-blend-mode:multiply" opacity="0.3">
<path d="M92.8672 191.523C102.351 189.153 105.939 192.486 105.939 192.486C106.993 191.402 108.612 187.655 110.048 183.831C110.018 183.812 109.989 183.796 109.959 183.781C108.909 183.266 107.661 183.874 106.727 184.575C105.79 185.277 104.828 186.133 103.659 186.141C102.884 186.148 102.166 185.773 101.426 185.542C100.689 185.31 99.7905 185.248 99.2258 185.777C100.344 183.789 101.47 181.789 102.241 179.64C103.008 177.493 103.41 175.168 103.035 172.915C102.515 169.796 101.488 166.979 99.7442 164.34C98.0007 161.7 96.4932 159.416 95.5583 155.755C95.4068 159.553 96.1247 163.33 95.3717 167.083C95.2218 167.828 95.1627 168.572 95.1595 169.317C95.2935 168.479 95.3669 167.994 95.3669 167.994L96.9733 170.138L98.827 172.61C98.6978 177.739 92.8672 191.523 92.8672 191.523Z" fill="#1A1A1A"/>
</g>
<g style="mix-blend-mode:multiply" opacity="0.3">
<path d="M89.5797 114.907C89.5367 118.155 92.5915 120.101 92.5915 120.101L92.3666 118.869C92.2501 118.803 92.1353 118.735 92.0252 118.661C90.8719 117.884 90.3438 116.345 90.623 114.98C90.899 113.614 91.9056 112.456 93.1515 111.835C94.1229 111.352 95.2348 111.162 96.1489 110.574C96.645 110.246 97.063 109.826 97.3772 109.32C97.4873 109.143 97.5766 108.957 97.6564 108.771C97.2161 109.384 95.9942 110.785 94.0432 110.801C91.5435 110.823 89.6196 111.657 89.5781 114.905L89.5797 114.907Z" fill="#1A1A1A"/>
</g>
<path d="M622.77 210.466C623.123 222.078 614.448 232.891 604.486 240.151C594.523 247.411 596.867 253.978 596.867 253.978L596.485 254.04L592.88 254.634C592.88 254.634 587.08 243.817 595.019 231.951C601.927 221.627 602.736 218.777 604.374 210.41C604.62 209.159 604.883 207.785 605.188 206.243C607.532 194.397 615.619 185.387 627.222 181.623C627.222 181.623 620.776 185.952 622.769 210.465L622.77 210.466Z" fill="#84172F"/>
<path d="M587.433 256.313C587.088 256.829 586.865 257.098 586.865 257.098L583.333 255.764L583.088 255.671C583.088 255.671 583.128 255.604 583.19 255.473C583.365 255.103 583.715 254.227 583.823 252.916C583.979 251.016 583.625 248.21 581.491 244.732C581.087 244.076 580.621 243.394 580.082 242.692C579.567 242.02 578.988 241.329 578.334 240.617C569.992 231.539 563.613 219.228 566.239 207.914C573.009 184.271 567.539 178.759 567.539 178.759C578.176 184.733 584.337 195.158 584.306 207.234C584.289 214.328 584.107 217.921 585.067 222.355C585.212 223.029 585.385 223.723 585.589 224.453C586.323 227.087 587.463 230.175 589.226 234.441C590.357 237.178 590.919 239.756 591.096 242.122C591.628 249.227 588.709 254.421 587.436 256.316L587.433 256.313Z" fill="#FCE7EF"/>
<g style="mix-blend-mode:multiply" opacity="0.2">
<path d="M591.093 242.119C589.383 248.964 587.459 256.211 587.433 256.313C587.089 256.829 586.865 257.098 586.865 257.098L583.334 255.764C583.286 255.67 583.238 255.572 583.19 255.473C583.366 255.103 583.715 254.227 583.823 252.916C583.98 251.017 583.626 248.21 581.491 244.732C581.088 244.076 580.622 243.394 580.083 242.692C579.896 237.19 581.033 232.149 582.606 228.886C583.71 226.593 584.509 224.276 585.068 222.354C585.213 223.027 585.385 223.722 585.589 224.451C586.323 227.085 587.464 230.174 589.226 234.439C590.357 237.177 590.919 239.755 591.096 242.12L591.093 242.119Z" fill="#2645A8"/>
</g>
<path d="M594.076 254.204C593.888 254.204 593.734 254.051 593.734 253.863C593.734 247.944 596.132 241.626 601.066 234.546C601.966 233.255 602.937 231.987 603.877 230.761C606.037 227.942 608.27 225.029 609.736 221.675C610.92 218.97 610.842 216.253 610.757 213.378C610.712 211.82 610.665 210.211 610.837 208.604C611.647 201.031 613.924 195.814 618.218 191.689C618.354 191.558 618.571 191.563 618.701 191.699C618.832 191.835 618.827 192.052 618.692 192.183C614.522 196.189 612.309 201.275 611.516 208.677C611.349 210.238 611.395 211.825 611.44 213.359C611.521 216.184 611.607 219.104 610.361 221.95C608.862 225.379 606.603 228.327 604.418 231.178C603.483 232.398 602.516 233.659 601.626 234.937C596.775 241.899 594.417 248.089 594.417 253.861C594.417 254.05 594.264 254.203 594.076 254.203V254.204Z" fill="#033A3F"/>
<path d="M587.216 259.732C587.192 259.732 587.166 259.729 587.142 259.724C586.957 259.684 586.841 259.501 586.882 259.317C588.409 252.38 585.423 245.173 583.044 240.355C582.376 239 581.658 237.63 580.966 236.307C578.597 231.783 576.148 227.104 575.081 222.03C574.089 217.311 574.325 212.406 574.554 207.663C574.593 206.881 574.631 206.07 574.664 205.277C574.891 199.789 574.798 194.017 572.607 188.985C572.532 188.813 572.61 188.61 572.784 188.535C572.958 188.46 573.158 188.538 573.233 188.712C575.48 193.871 575.577 199.736 575.347 205.306C575.314 206.102 575.275 206.913 575.237 207.697C575.011 212.396 574.776 217.257 575.749 221.889C576.797 226.871 579.224 231.507 581.57 235.991C582.266 237.319 582.984 238.692 583.657 240.053C585.396 243.576 586.573 246.671 587.257 249.519C588.128 253.151 588.224 256.404 587.551 259.466C587.516 259.625 587.374 259.734 587.217 259.734L587.216 259.732Z" fill="#033A3F"/>
<g style="mix-blend-mode:multiply" opacity="0.2">
<path d="M605.21 221.923C604.765 226.89 603.141 231.564 600.379 235.815C597.299 240.556 596.211 244.54 595.842 247.05C595.417 249.933 595.747 252.053 596.16 252.99C596.324 253.363 596.431 253.714 596.493 254.043L592.888 254.637C592.888 254.637 587.088 243.821 595.027 231.954C601.935 221.631 602.743 218.78 604.382 210.414C604.415 210.599 604.449 210.779 604.481 210.955C604.565 211.407 604.643 211.834 604.706 212.251C604.728 212.398 604.753 212.559 604.779 212.731C605.057 214.529 605.572 217.871 605.21 221.924V221.923Z" fill="#2645A8"/>
</g>
<path d="M587.167 252.689C587.167 252.689 580.369 242.486 587.87 227.708C591.27 217.974 585.292 206.244 588.456 195.455C591.621 184.664 602.403 185.252 605.333 173.287L607.209 166.719C607.209 166.719 612.601 183.256 604.866 195.453C599.239 203.781 601.232 209.528 601.701 212.695C602.17 215.862 603.928 224.775 597.832 234.158C591.737 243.541 592.09 251.282 593.378 254.214C594.667 257.146 587.167 252.689 587.167 252.689Z" fill="#EF5A88"/>
<path d="M590.807 257.981C590.726 257.981 590.644 257.952 590.579 257.895C589.367 256.814 588.966 254.001 588.7 252.14C588.658 251.848 588.618 251.574 588.582 251.339C588.32 249.707 588.449 248.055 588.575 246.459C588.622 245.88 588.668 245.283 588.695 244.702C588.818 241.983 589.001 239.692 590.131 237.025C590.418 236.348 590.719 235.665 591.013 235.003C591.74 233.358 592.493 231.66 593.05 229.944C594.628 225.085 594.923 219.163 593.857 213.699C592.413 206.287 593.506 199.267 597.019 193.394C597.906 191.911 598.917 190.522 599.897 189.18C601.824 186.536 603.644 184.038 604.531 180.933C604.584 180.751 604.772 180.646 604.954 180.699C605.135 180.751 605.241 180.94 605.188 181.122C604.268 184.345 602.412 186.889 600.449 189.584C599.479 190.913 598.477 192.289 597.606 193.745C594.181 199.469 593.117 206.324 594.529 213.568C595.631 219.225 595.338 225.115 593.701 230.156C593.133 231.906 592.374 233.622 591.638 235.28C591.346 235.94 591.045 236.621 590.761 237.292C589.676 239.854 589.497 242.084 589.378 244.732C589.351 245.322 589.303 245.927 589.258 246.512C589.135 248.068 589.009 249.679 589.258 251.23C589.296 251.471 589.336 251.749 589.378 252.043C589.603 253.622 589.931 255.925 590.735 257.044C590.842 257.025 590.954 257.057 591.037 257.138C591.177 257.279 591.239 257.429 591.22 257.585C591.211 257.667 591.168 257.821 590.984 257.931C590.93 257.965 590.868 257.981 590.807 257.981Z" fill="#033A3F"/>
<path d="M598.847 250.108H581.811C579.627 250.108 578.005 252.134 578.482 254.267L580.859 264.914C581.207 266.473 582.591 267.583 584.188 267.583H596.47C598.067 267.583 599.451 266.473 599.799 264.914L602.176 254.267C602.652 252.134 601.031 250.108 598.847 250.108Z" fill="white"/>
<g style="mix-blend-mode:multiply" opacity="0.2">
<path d="M599.759 265.072C599.355 266.548 598.012 267.584 596.47 267.584H584.188C582.589 267.584 581.206 266.475 580.859 264.915L578.482 254.267C578.006 252.134 579.627 250.108 581.811 250.108H581.83C582.478 258.527 589.508 265.156 598.087 265.156C598.652 265.156 599.21 265.128 599.76 265.072H599.759Z" fill="#2645A8"/>
</g>
<path d="M622.77 210.466C623.123 222.078 614.448 232.891 604.486 240.151C594.523 247.41 596.867 253.978 596.867 253.978L596.485 254.04L592.88 254.634C592.88 254.634 587.08 243.817 595.019 231.951C601.927 221.627 602.736 218.776 604.374 210.41C604.62 209.159 604.883 207.784 605.188 206.242C607.532 194.397 615.619 185.387 627.222 181.623C627.222 181.623 620.776 185.952 622.769 210.465L622.77 210.466Z" fill="#84172F"/>
<path d="M587.433 256.313C587.088 256.828 586.865 257.098 586.865 257.098L583.333 255.764L583.088 255.671C583.088 255.671 583.128 255.604 583.19 255.473C583.365 255.103 583.715 254.227 583.823 252.916C583.979 251.016 583.625 248.21 581.491 244.732C581.087 244.076 580.621 243.394 580.082 242.692C579.567 242.02 578.988 241.329 578.334 240.617C569.992 231.539 563.613 219.228 566.239 207.914C573.009 184.271 567.539 178.759 567.539 178.759C578.176 184.733 584.337 195.158 584.306 207.234C584.289 214.328 584.107 217.921 585.067 222.355C585.212 223.029 585.385 223.723 585.589 224.453C586.323 227.087 587.463 230.175 589.226 234.441C590.357 237.178 590.919 239.756 591.096 242.122C591.628 249.227 588.709 254.421 587.436 256.316L587.433 256.313Z" fill="#FCE7EF"/>
<g style="mix-blend-mode:multiply" opacity="0.2">
<path d="M591.093 242.119C589.383 248.964 587.459 256.211 587.433 256.313C587.089 256.828 586.865 257.098 586.865 257.098L583.334 255.764C583.286 255.67 583.238 255.572 583.19 255.473C583.366 255.103 583.715 254.227 583.823 252.916C583.98 251.016 583.626 248.21 581.491 244.732C581.088 244.076 580.622 243.394 580.083 242.692C579.896 237.19 581.033 232.148 582.606 228.886C583.71 226.593 584.509 224.276 585.068 222.354C585.213 223.027 585.385 223.722 585.589 224.451C586.323 227.085 587.464 230.174 589.226 234.439C590.357 237.177 590.919 239.755 591.096 242.12L591.093 242.119Z" fill="#2645A8"/>
</g>
<path d="M594.076 254.204C593.888 254.204 593.734 254.051 593.734 253.863C593.734 247.944 596.132 241.626 601.066 234.546C601.966 233.255 602.937 231.987 603.877 230.761C606.037 227.942 608.27 225.029 609.736 221.675C610.92 218.97 610.842 216.253 610.757 213.378C610.712 211.82 610.665 210.211 610.837 208.603C611.647 201.031 613.924 195.814 618.218 191.689C618.354 191.558 618.571 191.563 618.701 191.699C618.832 191.835 618.827 192.052 618.692 192.183C614.522 196.189 612.309 201.275 611.516 208.677C611.349 210.238 611.395 211.825 611.44 213.359C611.521 216.184 611.607 219.104 610.361 221.95C608.862 225.379 606.603 228.327 604.418 231.178C603.483 232.398 602.516 233.659 601.626 234.937C596.775 241.899 594.417 248.089 594.417 253.861C594.417 254.049 594.264 254.203 594.076 254.203V254.204Z" fill="#033A3F"/>
<path d="M587.216 259.732C587.192 259.732 587.166 259.729 587.142 259.724C586.957 259.684 586.841 259.501 586.882 259.317C588.409 252.38 585.423 245.172 583.044 240.355C582.376 239 581.658 237.63 580.966 236.307C578.597 231.783 576.148 227.104 575.081 222.03C574.089 217.311 574.325 212.406 574.554 207.663C574.593 206.881 574.631 206.07 574.664 205.277C574.891 199.789 574.798 194.017 572.607 188.985C572.532 188.813 572.61 188.61 572.784 188.535C572.958 188.46 573.158 188.538 573.233 188.712C575.48 193.871 575.577 199.736 575.347 205.305C575.314 206.102 575.275 206.913 575.237 207.697C575.011 212.396 574.776 217.257 575.749 221.889C576.797 226.871 579.224 231.507 581.57 235.991C582.266 237.319 582.984 238.692 583.657 240.053C585.396 243.576 586.573 246.671 587.257 249.519C588.128 253.151 588.224 256.404 587.551 259.466C587.516 259.625 587.374 259.734 587.217 259.734L587.216 259.732Z" fill="#033A3F"/>
<g style="mix-blend-mode:multiply" opacity="0.2">
<path d="M605.21 221.923C604.765 226.89 603.141 231.564 600.379 235.815C597.299 240.556 596.211 244.54 595.842 247.05C595.417 249.933 595.747 252.052 596.16 252.989C596.324 253.363 596.431 253.714 596.493 254.043L592.888 254.637C592.888 254.637 587.088 243.82 595.027 231.954C601.935 221.631 602.743 218.78 604.382 210.414C604.415 210.599 604.449 210.779 604.481 210.955C604.565 211.406 604.643 211.834 604.706 212.251C604.728 212.398 604.753 212.559 604.779 212.731C605.057 214.529 605.572 217.871 605.21 221.924V221.923Z" fill="#2645A8"/>
</g>
<path d="M587.167 252.689C587.167 252.689 580.369 242.486 587.87 227.708C591.27 217.974 585.292 206.244 588.456 195.455C591.621 184.664 602.403 185.252 605.333 173.287L607.209 166.719C607.209 166.719 612.601 183.256 604.866 195.453C599.239 203.781 601.232 209.528 601.701 212.695C602.17 215.862 603.928 224.775 597.832 234.158C591.737 243.541 592.09 251.282 593.378 254.214C594.667 257.146 587.167 252.689 587.167 252.689Z" fill="#EF5A88"/>
<path d="M590.807 257.981C590.726 257.981 590.644 257.952 590.579 257.895C589.367 256.814 588.966 254.001 588.7 252.14C588.658 251.848 588.618 251.573 588.582 251.339C588.32 249.707 588.449 248.055 588.575 246.459C588.622 245.88 588.668 245.283 588.695 244.701C588.818 241.983 589.001 239.692 590.131 237.025C590.418 236.348 590.719 235.665 591.013 235.002C591.74 233.358 592.493 231.66 593.05 229.944C594.628 225.085 594.923 219.163 593.857 213.699C592.413 206.287 593.506 199.267 597.019 193.394C597.906 191.911 598.917 190.522 599.897 189.18C601.824 186.536 603.644 184.038 604.531 180.933C604.584 180.751 604.772 180.646 604.954 180.699C605.135 180.751 605.241 180.94 605.188 181.122C604.268 184.345 602.412 186.889 600.449 189.584C599.479 190.913 598.477 192.289 597.606 193.745C594.181 199.469 593.117 206.324 594.529 213.568C595.631 219.225 595.338 225.115 593.701 230.156C593.133 231.906 592.374 233.622 591.638 235.28C591.346 235.94 591.045 236.621 590.761 237.292C589.676 239.854 589.497 242.084 589.378 244.732C589.351 245.322 589.303 245.927 589.258 246.512C589.135 248.068 589.009 249.679 589.258 251.23C589.296 251.471 589.336 251.749 589.378 252.043C589.603 253.621 589.931 255.925 590.735 257.044C590.842 257.025 590.954 257.057 591.037 257.138C591.177 257.279 591.239 257.429 591.22 257.585C591.211 257.666 591.168 257.821 590.984 257.931C590.93 257.965 590.868 257.981 590.807 257.981Z" fill="#033A3F"/>
<path d="M598.847 250.108H581.811C579.627 250.108 578.005 252.134 578.482 254.266L580.859 264.914C581.207 266.473 582.591 267.583 584.188 267.583H596.47C598.067 267.583 599.451 266.473 599.799 264.914L602.176 254.266C602.652 252.134 601.031 250.108 598.847 250.108Z" fill="white"/>
<g style="mix-blend-mode:multiply" opacity="0.2">
<path d="M599.759 265.072C599.355 266.548 598.012 267.584 596.47 267.584H584.188C582.589 267.584 581.206 266.475 580.859 264.915L578.482 254.266C578.006 252.134 579.627 250.108 581.811 250.108H581.83C582.478 258.527 589.508 265.156 598.087 265.156C598.652 265.156 599.21 265.128 599.76 265.072H599.759Z" fill="#2645A8"/>
</g>
<path d="M84.528 214.754C84.8789 226.365 76.2056 237.178 66.2434 244.438C56.2812 251.698 58.6246 258.265 58.6246 258.265L58.2433 258.327L54.6381 258.921C54.6381 258.921 48.8378 248.105 56.7773 236.238C63.6847 225.915 64.4934 223.064 66.1318 214.698C66.3774 213.446 66.6406 212.072 66.9453 210.53C69.2903 198.684 77.3765 189.675 88.9803 185.911C88.9803 185.911 82.5339 190.24 84.5264 214.752L84.528 214.754Z" fill="#84172F"/>
<path d="M49.1909 260.6C48.8463 261.116 48.623 261.386 48.623 261.386L45.0911 260.051L44.8454 259.959C44.8454 259.959 44.8853 259.892 44.9475 259.761C45.123 259.39 45.4724 258.514 45.5809 257.203C45.7372 255.304 45.383 252.498 43.2486 249.019C42.845 248.363 42.3792 247.682 41.84 246.979C41.3248 246.307 40.7457 245.616 40.0917 244.904C31.7502 235.826 25.3708 223.516 27.9966 212.201C34.7668 188.56 29.2967 183.047 29.2967 183.047C39.9337 189.02 46.0945 199.445 46.0642 211.521C46.0467 218.615 45.8648 222.208 46.8251 226.643C46.9703 227.318 47.1426 228.011 47.3468 228.74C48.0806 231.374 49.2212 234.463 50.9839 238.728C52.1149 241.466 52.6765 244.044 52.8535 246.409C53.3863 253.514 50.4671 258.709 49.1941 260.604L49.1909 260.6Z" fill="#FCE7EF"/>
<g style="mix-blend-mode:multiply" opacity="0.2">
<path d="M52.8507 246.406C51.1406 253.251 49.2167 260.498 49.1912 260.6C48.8466 261.116 48.6233 261.386 48.6233 261.386L45.0915 260.051C45.0436 259.957 44.9957 259.86 44.9479 259.761C45.1234 259.39 45.4727 258.514 45.5812 257.203C45.7375 255.304 45.3834 252.498 43.249 249.019C42.8454 248.363 42.3796 247.682 41.8404 246.979C41.6537 241.477 42.7911 236.437 44.364 233.173C45.4679 230.881 46.2671 228.563 46.8255 226.641C46.9706 227.316 47.1429 228.009 47.3471 228.739C48.0809 231.372 49.2215 234.461 50.9842 238.727C52.1153 241.464 52.6768 244.042 52.8539 246.408L52.8507 246.406Z" fill="#2645A8"/>
</g>
<path d="M55.8414 258.492C55.6531 258.492 55.5 258.338 55.5 258.15C55.5 252.231 57.8976 245.913 62.8317 238.833C63.7314 237.542 64.7029 236.275 65.6425 235.049C67.8024 232.23 70.0358 229.316 71.5018 225.963C72.6854 223.257 72.6073 220.54 72.5227 217.665C72.4781 216.107 72.4302 214.498 72.6025 212.891C73.4129 205.318 75.6893 200.101 79.9836 195.977C80.1192 195.846 80.3362 195.85 80.467 195.986C80.5978 196.122 80.593 196.339 80.4574 196.47C76.2875 200.477 74.0749 205.562 73.2821 212.964C73.1146 214.525 73.1608 216.112 73.2055 217.646C73.2869 220.471 73.373 223.391 72.1271 226.237C70.6276 229.666 68.3687 232.614 66.1833 235.465C65.2485 236.685 64.2818 237.946 63.3916 239.225C58.5405 246.186 56.1828 252.376 56.1828 258.148C56.1828 258.337 56.0296 258.49 55.8414 258.49V258.492Z" fill="#033A3F"/>
<path d="M48.9735 264.02C48.9496 264.02 48.9241 264.016 48.9001 264.012C48.7151 263.972 48.5986 263.788 48.6401 263.605C50.1668 256.667 47.1805 249.46 44.802 244.642C44.1336 243.287 43.4157 241.918 42.7234 240.594C40.3545 236.07 37.9058 231.392 36.8386 226.317C35.8463 221.599 36.0824 216.693 36.3122 211.951C36.3504 211.168 36.3887 210.358 36.4222 209.564C36.6487 204.076 36.5562 198.304 34.3644 193.273C34.2894 193.1 34.3676 192.897 34.5414 192.822C34.7153 192.747 34.9163 192.826 34.9913 193C37.2374 198.159 37.3347 204.024 37.105 209.593C37.0715 210.389 37.0332 211.2 36.9949 211.984C36.7684 216.684 36.5339 221.544 37.507 226.177C38.5551 231.159 40.9814 235.794 43.328 240.278C44.0235 241.606 44.7414 242.979 45.4146 244.341C47.1534 247.864 48.3306 250.959 49.015 253.807C49.886 257.438 49.9817 260.691 49.3085 263.753C49.2734 263.913 49.1314 264.021 48.9751 264.021L48.9735 264.02Z" fill="#033A3F"/>
<g style="mix-blend-mode:multiply" opacity="0.2">
<path d="M66.9675 226.21C66.5224 231.178 64.8985 235.852 62.1371 240.103C59.0567 244.843 57.9688 248.828 57.6003 251.337C57.1744 254.22 57.5046 256.34 57.9177 257.277C58.082 257.65 58.1889 258.002 58.2511 258.33L54.6459 258.924C54.6459 258.924 48.8456 248.108 56.7851 236.241C63.6925 225.918 64.5013 223.067 66.1396 214.701C66.1731 214.886 66.2066 215.067 66.2385 215.242C66.323 215.694 66.4012 216.122 66.4634 216.538C66.4857 216.685 66.5113 216.846 66.5368 217.019C66.8143 218.816 67.3296 222.159 66.9675 226.212V226.21Z" fill="#2645A8"/>
</g>
<path d="M48.9244 256.977C48.9244 256.977 42.1272 246.773 49.6279 231.995C53.0274 222.261 47.05 210.532 50.2134 199.742C53.3783 188.952 64.1605 189.539 67.091 177.575L68.967 171.006C68.967 171.006 74.3588 187.544 66.6236 199.741C60.9972 208.069 62.9896 213.815 63.4586 216.982C63.9276 220.149 65.6856 229.063 59.5902 238.446C53.4948 247.829 53.8473 255.569 55.1363 258.501C56.4252 261.434 48.9244 256.977 48.9244 256.977Z" fill="#EF5A88"/>
<path d="M52.5644 262.268C52.483 262.268 52.4017 262.24 52.3363 262.182C51.1239 261.102 50.7235 258.289 50.4571 256.428C50.4156 256.135 50.3757 255.861 50.339 255.626C50.0774 253.995 50.2082 252.343 50.3326 250.746C50.3789 250.167 50.4252 249.57 50.4523 248.989C50.5751 246.271 50.7586 243.98 51.888 241.312C52.1751 240.636 52.4766 239.952 52.7702 239.29C53.4976 237.646 54.2505 235.947 54.8073 234.231C56.385 229.372 56.6801 223.45 55.6145 217.986C54.1708 210.575 55.2635 203.554 58.7762 197.681C59.6632 196.198 60.6745 194.81 61.654 193.467C63.5811 190.824 65.4012 188.326 66.2882 185.221C66.3408 185.039 66.5291 184.934 66.7109 184.986C66.8928 185.039 66.9981 185.227 66.9454 185.409C66.025 188.632 64.1697 191.177 62.206 193.871C61.2361 195.201 60.2343 196.577 59.3633 198.033C55.9383 203.758 54.8743 210.611 56.2861 217.855C57.3884 223.512 57.0948 229.404 55.4581 234.444C54.8902 236.193 54.1309 237.909 53.3955 239.568C53.1036 240.227 52.8021 240.909 52.5181 241.579C51.4334 244.141 51.2547 246.371 51.1351 249.019C51.1079 249.61 51.0601 250.215 51.0154 250.799C50.8926 252.356 50.7666 253.966 51.0154 255.518C51.0537 255.759 51.0936 256.037 51.1351 256.33C51.36 257.909 51.6886 260.212 52.4926 261.331C52.5995 261.312 52.7111 261.344 52.7941 261.426C52.9345 261.566 52.9967 261.716 52.9775 261.873C52.968 261.954 52.9249 262.109 52.7415 262.219C52.6872 262.252 52.625 262.268 52.5644 262.268Z" fill="#033A3F"/>
<path d="M60.6047 254.396H43.5692C41.3853 254.396 39.763 256.421 40.2399 258.554L42.6168 269.201C42.9646 270.761 44.3493 271.87 45.9461 271.87H58.2278C59.8246 271.87 61.2093 270.761 61.557 269.201L63.9339 258.552C64.4093 256.42 62.7886 254.394 60.6047 254.394V254.396Z" fill="white"/>
<g style="mix-blend-mode:multiply" opacity="0.2">
<path d="M61.5167 269.359C61.1131 270.836 59.7699 271.872 58.2273 271.872H45.9456C44.3472 271.872 42.9642 270.762 42.6164 269.203L40.2395 258.554C39.7641 256.421 41.3849 254.396 43.5687 254.396H43.5879C44.2356 262.814 51.2657 269.444 59.8449 269.444C60.4096 269.444 60.968 269.415 61.5183 269.359H61.5167Z" fill="#2645A8"/>
</g>
<path d="M84.528 214.754C84.8789 226.365 76.2056 237.178 66.2434 244.438C56.2812 251.698 58.6246 258.265 58.6246 258.265L58.2433 258.328L54.6381 258.921C54.6381 258.921 48.8378 248.105 56.7773 236.238C63.6847 225.915 64.4934 223.064 66.1318 214.698C66.3774 213.447 66.6406 212.072 66.9453 210.53C69.2903 198.684 77.3765 189.675 88.9803 185.911C88.9803 185.911 82.5339 190.24 84.5264 214.752L84.528 214.754Z" fill="#84172F"/>
<path d="M49.1909 260.601C48.8463 261.116 48.623 261.386 48.623 261.386L45.0911 260.051L44.8454 259.959C44.8454 259.959 44.8853 259.892 44.9475 259.761C45.123 259.391 45.4724 258.514 45.5809 257.204C45.7372 255.304 45.383 252.498 43.2486 249.02C42.845 248.364 42.3792 247.682 41.84 246.98C41.3248 246.308 40.7457 245.616 40.0917 244.904C31.7502 235.826 25.3708 223.516 27.9966 212.201C34.7668 188.561 29.2967 183.047 29.2967 183.047C39.9337 189.02 46.0945 199.446 46.0642 211.521C46.0467 218.615 45.8648 222.209 46.8251 226.643C46.9703 227.318 47.1426 228.011 47.3468 228.74C48.0806 231.374 49.2212 234.463 50.9839 238.728C52.1149 241.466 52.6765 244.044 52.8535 246.41C53.3863 253.515 50.4671 258.709 49.1941 260.604L49.1909 260.601Z" fill="#FCE7EF"/>
<g style="mix-blend-mode:multiply" opacity="0.2">
<path d="M52.8507 246.406C51.1406 253.251 49.2167 260.498 49.1912 260.601C48.8466 261.116 48.6233 261.386 48.6233 261.386L45.0915 260.051C45.0436 259.957 44.9957 259.86 44.9479 259.761C45.1234 259.391 45.4727 258.514 45.5812 257.204C45.7375 255.304 45.3834 252.498 43.249 249.02C42.8454 248.363 42.3796 247.682 41.8404 246.98C41.6537 241.477 42.7911 236.438 44.364 233.173C45.4679 230.881 46.2671 228.563 46.8255 226.641C46.9706 227.317 47.1429 228.009 47.3471 228.739C48.0809 231.373 49.2215 234.462 50.9842 238.727C52.1153 241.464 52.6768 244.042 52.8539 246.408L52.8507 246.406Z" fill="#2645A8"/>
</g>
<path d="M55.8414 258.492C55.6531 258.492 55.5 258.339 55.5 258.15C55.5 252.231 57.8976 245.913 62.8317 238.834C63.7314 237.542 64.7029 236.275 65.6425 235.049C67.8024 232.23 70.0358 229.317 71.5018 225.963C72.6854 223.257 72.6073 220.54 72.5227 217.665C72.4781 216.107 72.4302 214.498 72.6025 212.891C73.4129 205.318 75.6893 200.102 79.9836 195.977C80.1192 195.846 80.3362 195.851 80.467 195.986C80.5978 196.122 80.593 196.339 80.4574 196.47C76.2875 200.477 74.0749 205.562 73.2821 212.964C73.1146 214.526 73.1608 216.112 73.2055 217.646C73.2869 220.472 73.373 223.391 72.1271 226.237C70.6276 229.666 68.3687 232.615 66.1833 235.466C65.2485 236.685 64.2818 237.946 63.3916 239.225C58.5405 246.186 56.1828 252.376 56.1828 258.149C56.1828 258.337 56.0296 258.49 55.8414 258.49V258.492Z" fill="#033A3F"/>
<path d="M48.9735 264.02C48.9496 264.02 48.9241 264.017 48.9001 264.012C48.7151 263.972 48.5986 263.788 48.6401 263.605C50.1668 256.667 47.1805 249.46 44.802 244.643C44.1336 243.287 43.4157 241.918 42.7234 240.594C40.3545 236.071 37.9058 231.392 36.8386 226.317C35.8463 221.599 36.0824 216.693 36.3122 211.951C36.3504 211.169 36.3887 210.358 36.4222 209.564C36.6487 204.076 36.5562 198.304 34.3644 193.273C34.2894 193.1 34.3676 192.898 34.5414 192.823C34.7153 192.748 34.9163 192.826 34.9913 193C37.2374 198.159 37.3347 204.024 37.105 209.593C37.0715 210.39 37.0332 211.201 36.9949 211.984C36.7684 216.684 36.5339 221.545 37.507 226.177C38.5551 231.159 40.9814 235.794 43.328 240.278C44.0235 241.607 44.7414 242.979 45.4146 244.341C47.1534 247.864 48.3306 250.959 49.015 253.807C49.886 257.438 49.9817 260.692 49.3085 263.753C49.2734 263.913 49.1314 264.021 48.9751 264.021L48.9735 264.02Z" fill="#033A3F"/>
<g style="mix-blend-mode:multiply" opacity="0.2">
<path d="M66.9675 226.21C66.5224 231.178 64.8985 235.852 62.1371 240.103C59.0567 244.844 57.9688 248.828 57.6003 251.337C57.1744 254.22 57.5046 256.34 57.9177 257.277C58.082 257.651 58.1889 258.002 58.2511 258.331L54.6459 258.924C54.6459 258.924 48.8456 248.108 56.7851 236.241C63.6925 225.918 64.5013 223.067 66.1396 214.701C66.1731 214.886 66.2066 215.067 66.2385 215.242C66.323 215.694 66.4012 216.122 66.4634 216.539C66.4857 216.685 66.5113 216.847 66.5368 217.019C66.8143 218.816 67.3296 222.159 66.9675 226.212V226.21Z" fill="#2645A8"/>
</g>
<path d="M48.9244 256.977C48.9244 256.977 42.1272 246.774 49.6279 231.995C53.0274 222.261 47.05 210.532 50.2134 199.743C53.3783 188.952 64.1605 189.539 67.091 177.575L68.967 171.006C68.967 171.006 74.3588 187.544 66.6236 199.741C60.9972 208.069 62.9896 213.815 63.4586 216.982C63.9276 220.149 65.6856 229.063 59.5902 238.446C53.4948 247.829 53.8473 255.569 55.1363 258.502C56.4252 261.434 48.9244 256.977 48.9244 256.977Z" fill="#EF5A88"/>
<path d="M52.5644 262.269C52.483 262.269 52.4017 262.24 52.3363 262.182C51.1239 261.102 50.7235 258.289 50.4571 256.428C50.4156 256.136 50.3757 255.861 50.339 255.627C50.0774 253.995 50.2082 252.343 50.3326 250.747C50.3789 250.167 50.4252 249.57 50.4523 248.989C50.5751 246.271 50.7586 243.98 51.888 241.313C52.1751 240.636 52.4766 239.953 52.7702 239.29C53.4976 237.646 54.2505 235.948 54.8073 234.232C56.385 229.373 56.6801 223.45 55.6145 217.986C54.1708 210.575 55.2635 203.554 58.7762 197.682C59.6632 196.199 60.6745 194.81 61.654 193.467C63.5811 190.824 65.4012 188.326 66.2882 185.221C66.3408 185.039 66.5291 184.934 66.7109 184.986C66.8928 185.039 66.9981 185.228 66.9454 185.409C66.025 188.632 64.1697 191.177 62.206 193.871C61.2361 195.201 60.2343 196.577 59.3633 198.033C55.9383 203.759 54.8743 210.612 56.2861 217.855C57.3884 223.513 57.0948 229.404 55.4581 234.444C54.8902 236.193 54.1309 237.909 53.3955 239.568C53.1036 240.227 52.8021 240.909 52.5181 241.579C51.4334 244.141 51.2547 246.371 51.1351 249.02C51.1079 249.61 51.0601 250.215 51.0154 250.799C50.8926 252.356 50.7666 253.966 51.0154 255.518C51.0537 255.759 51.0936 256.037 51.1351 256.33C51.36 257.909 51.6886 260.213 52.4926 261.332C52.5995 261.312 52.7111 261.344 52.7941 261.426C52.9345 261.566 52.9967 261.716 52.9775 261.873C52.968 261.954 52.9249 262.109 52.7415 262.219C52.6872 262.253 52.625 262.269 52.5644 262.269Z" fill="#033A3F"/>
<path d="M60.6047 254.396H43.5692C41.3853 254.396 39.763 256.422 40.2399 258.554L42.6168 269.201C42.9646 270.761 44.3493 271.87 45.9461 271.87H58.2278C59.8246 271.87 61.2093 270.761 61.557 269.201L63.9339 258.553C64.4093 256.42 62.7886 254.394 60.6047 254.394V254.396Z" fill="white"/>
<g style="mix-blend-mode:multiply" opacity="0.2">
<path d="M61.5167 269.359C61.1131 270.836 59.7699 271.872 58.2273 271.872H45.9456C44.3472 271.872 42.9642 270.763 42.6164 269.203L40.2395 258.554C39.7641 256.422 41.3849 254.396 43.5687 254.396H43.5879C44.2356 262.815 51.2657 269.444 59.8449 269.444C60.4096 269.444 60.968 269.415 61.5183 269.359H61.5167Z" fill="#2645A8"/>
</g>
</svg>
