<svg width="32" height="32" viewBox="0 0 32 32" fill="none" xmlns="http://www.w3.org/2000/svg">
<path fill-rule="evenodd" clip-rule="evenodd" d="M28 21.3889V10.6129C28 9.65959 27.492 8.77959 26.6667 8.30359L17.3333 2.91559C16.508 2.43959 15.492 2.43959 14.6667 2.91559L5.33333 8.30226C4.508 8.77959 4 9.65959 4 10.6129V21.3903C4 22.3436 4.508 23.2236 5.33333 23.6996L14.6667 29.0876C15.492 29.5636 16.508 29.5636 17.3333 29.0876L26.6667 23.6996C27.492 23.2223 28 22.3423 28 21.3889Z" stroke="#858C8D" stroke-width="1.5" stroke-linecap="round" stroke-linejoin="round"/>
<path d="M16.0002 29.44V16" stroke="#858C8D" stroke-width="1.5" stroke-linecap="round" stroke-linejoin="round"/>
<path d="M16 15.9993L27.64 9.2793" stroke="#858C8D" stroke-width="1.5" stroke-linecap="round" stroke-linejoin="round"/>
<path d="M4.35986 9.2793L15.9999 15.9993" stroke="#858C8D" stroke-width="1.5" stroke-linecap="round" stroke-linejoin="round"/>
</svg>
