<svg width="32" height="32" viewBox="0 0 32 32" fill="none" xmlns="http://www.w3.org/2000/svg">
<path d="M21.3355 24.6709H10.8911" stroke="#858C8D" stroke-width="1.5" stroke-linecap="round" stroke-linejoin="round"/>
<path d="M25.3317 24.6717H28.0048C28.7415 24.6717 29.3387 24.0745 29.3387 23.3378V15.1815C29.3387 14.8423 29.2739 14.5062 29.1479 14.1913L27.3409 9.67483C26.9357 8.66209 25.9548 7.99805 24.864 7.99805H20.0015" stroke="#858C8D" stroke-width="1.5" stroke-linecap="round" stroke-linejoin="round"/>
<path d="M29.3385 17.3356H24.6699C24.3015 17.3356 24.0029 17.037 24.0029 16.6686V12H28.2714" stroke="#858C8D" stroke-width="1.5" stroke-linecap="round" stroke-linejoin="round"/>
<path d="M24.7457 23.2618C25.318 23.834 25.4892 24.6946 25.1795 25.4423C24.8699 26.1899 24.1403 26.6774 23.3311 26.6775C22.5218 26.6775 21.7922 26.1901 21.4825 25.4424C21.1728 24.6948 21.3439 23.8342 21.9161 23.2619L21.9162 23.2618C22.2914 22.8866 22.8003 22.6758 23.331 22.6758C23.8616 22.6758 24.3705 22.8866 24.7457 23.2618V23.2618" stroke="#858C8D" stroke-width="1.5" stroke-linecap="round" stroke-linejoin="round"/>
<path d="M10.0728 23.2619C10.6451 23.8341 10.8163 24.6947 10.5067 25.4424C10.197 26.1901 9.46748 26.6776 8.65822 26.6776C7.84896 26.6777 7.11936 26.1902 6.80963 25.4426C6.4999 24.6949 6.67104 23.8343 7.24324 23.2621L7.24364 23.2617C7.61883 22.8865 8.1277 22.6757 8.65829 22.6758C9.18887 22.6758 9.69771 22.8867 10.0728 23.2619V23.2619" stroke="#858C8D" stroke-width="1.5" stroke-linecap="round" stroke-linejoin="round"/>
<path d="M6.6628 24.6715H3.99502C3.25834 24.6715 2.66113 24.0743 2.66113 23.3376V6.66397C2.66113 5.92728 3.25834 5.33008 3.99502 5.33008H18.6678C19.4045 5.33008 20.0017 5.92728 20.0017 6.66397V18.669" stroke="#858C8D" stroke-width="1.5" stroke-linecap="round" stroke-linejoin="round"/>
<path d="M20.0017 18.6689H2.66113" stroke="#858C8D" stroke-width="1.5" stroke-linecap="round" stroke-linejoin="round"/>
</svg>
