<svg width="40" height="40" viewBox="0 0 40 40" fill="none" xmlns="http://www.w3.org/2000/svg">
<path fill-rule="evenodd" clip-rule="evenodd" d="M12.5 5H27.5067C31.645 5 35 8.355 35 12.4933V27.5083C35 31.645 31.645 35 27.5067 35H12.4933C8.355 35 5 31.645 5 27.5067V12.5C5 8.35833 8.35833 5 12.5 5V5Z" stroke="#676F71" stroke-width="1.5" stroke-linecap="round" stroke-linejoin="round"/>
<path d="M29.1665 17.584C29.1665 17.1698 28.8307 16.834 28.4165 16.834C28.0023 16.834 27.6665 17.1698 27.6665 17.584H29.1665ZM11.0221 25.1415C10.7777 24.8071 10.3085 24.734 9.97406 24.9784C9.6396 25.2227 9.56656 25.692 9.81091 26.0264L11.0221 25.1415ZM10.2995 24.8432C9.89039 24.9078 9.61108 25.2918 9.67568 25.701C9.74028 26.1101 10.1243 26.3894 10.5335 26.3248L10.2995 24.8432ZM13.4165 24.584L13.6549 25.2951C13.9004 25.2128 14.0861 25.0096 14.1461 24.7577C14.2061 24.5057 14.1318 24.2407 13.9497 24.0566L13.4165 24.584ZM12.4165 12.584L13.0771 12.2289C12.9545 12.0008 12.723 11.8521 12.4646 11.8355C12.2062 11.8189 11.9575 11.9368 11.8067 12.1473L12.4165 12.584ZM18.4165 17.584L18.2392 18.3127C18.4586 18.3661 18.6904 18.3178 18.8702 18.1812C19.05 18.0446 19.1587 17.8343 19.1661 17.6086L18.4165 17.584ZM27.4165 14.584L26.7905 14.9971C26.9293 15.2074 27.1645 15.334 27.4165 15.334V14.584ZM30.4165 14.584L31.0405 15C31.194 14.7699 31.2083 14.474 31.0778 14.2301C30.9472 13.9862 30.6931 13.834 30.4165 13.834V14.584ZM27.7925 17.168C27.5627 17.5126 27.6558 17.9783 28.0005 18.208C28.3451 18.4378 28.8108 18.3447 29.0405 18L27.7925 17.168ZM28.4165 17.584H27.6665C27.6665 20.946 26.7066 23.755 24.9791 25.7128C23.2619 27.6589 20.7258 28.834 17.4165 28.834V29.584V30.334C21.1072 30.334 24.0711 29.0091 26.1039 26.7052C28.1264 24.413 29.1665 21.222 29.1665 17.584H28.4165ZM17.4165 29.584V28.834C15.5611 28.834 14.3139 28.3541 13.3735 27.6887C12.4102 27.007 11.724 26.1023 11.0221 25.1415L10.4165 25.584L9.81091 26.0264C10.5056 26.9773 11.3195 28.0727 12.507 28.9131C13.7175 29.7697 15.2719 30.334 17.4165 30.334V29.584ZM10.4165 25.584L10.5335 26.3248C10.5599 26.3206 10.5804 26.3159 10.5872 26.3143C10.5967 26.3121 10.6044 26.3101 10.6089 26.3089C10.6181 26.3065 10.6256 26.3044 10.6294 26.3032C10.6376 26.3009 10.6451 26.2985 10.65 26.297C10.6605 26.2938 10.6728 26.2899 10.6853 26.2858C10.711 26.2775 10.7463 26.266 10.7888 26.2521C10.8742 26.224 10.9936 26.1844 11.1352 26.1373C11.4185 26.0431 11.793 25.9181 12.1661 25.7934C12.5393 25.6687 12.9115 25.5441 13.1904 25.4507C13.3298 25.404 13.4459 25.3651 13.5272 25.3379C13.5678 25.3243 13.5997 25.3136 13.6215 25.3063C13.6324 25.3026 13.6407 25.2998 13.6463 25.298C13.6491 25.297 13.6513 25.2963 13.6527 25.2958C13.6534 25.2956 13.654 25.2954 13.6543 25.2953C13.6545 25.2952 13.6546 25.2952 13.6547 25.2951C13.6548 25.2951 13.6548 25.2951 13.6548 25.2951C13.6549 25.2951 13.6549 25.2951 13.4165 24.584C13.1781 23.8729 13.1781 23.8729 13.1781 23.8729C13.1781 23.8729 13.178 23.8729 13.178 23.8729C13.1779 23.8729 13.1778 23.873 13.1776 23.8731C13.1772 23.8732 13.1767 23.8734 13.176 23.8736C13.1746 23.8741 13.1724 23.8748 13.1696 23.8757C13.164 23.8776 13.1557 23.8804 13.1448 23.884C13.1231 23.8913 13.0912 23.902 13.0506 23.9156C12.9694 23.9428 12.8534 23.9817 12.714 24.0284C12.4353 24.1217 12.0635 24.2462 11.6906 24.3708C11.3177 24.4955 10.9442 24.6201 10.662 24.7139C10.5209 24.7608 10.4032 24.7998 10.3202 24.8271C10.2785 24.8408 10.2467 24.8512 10.2255 24.858C10.2146 24.8616 10.2084 24.8635 10.2058 24.8643C10.2041 24.8648 10.2064 24.8641 10.2108 24.8628C10.2128 24.8623 10.2187 24.8606 10.2266 24.8585C10.2306 24.8574 10.2377 24.8556 10.2468 24.8534C10.2532 24.8519 10.2733 24.8473 10.2995 24.8432L10.4165 25.584ZM13.4165 24.584L13.9497 24.0566C10.8719 20.9449 10.6414 16.3512 13.0263 13.0206L12.4165 12.584L11.8067 12.1473C9.00498 16.0601 9.28111 21.4697 12.8833 25.1114L13.4165 24.584ZM12.4165 12.584L11.7559 12.9391C13.0591 15.3636 15.5085 17.6484 18.2392 18.3127L18.4165 17.584L18.5938 16.8552C16.3779 16.3162 14.2339 14.3811 13.0771 12.2289L12.4165 12.584ZM18.4165 17.584L19.1661 17.6086C19.2082 16.3287 19.6604 15.2646 20.3838 14.5254C21.1031 13.7904 22.1317 13.334 23.4165 13.334V12.584V11.834C21.7564 11.834 20.3324 12.4334 19.3117 13.4763C18.2951 14.5151 17.7198 15.951 17.6669 17.5593L18.4165 17.584ZM23.4165 12.584V13.334C24.322 13.334 24.9918 13.5061 25.5096 13.7825C26.0258 14.0581 26.4374 14.462 26.7905 14.9971L27.4165 14.584L28.0425 14.1709C27.5806 13.471 26.9947 12.8749 26.2159 12.4592C25.4388 12.0444 24.516 11.834 23.4165 11.834V12.584ZM27.4165 14.584V15.334H30.4165V14.584V13.834H27.4165V14.584ZM30.4165 14.584L29.7925 14.168L27.7925 17.168L28.4165 17.584L29.0405 18L31.0405 15L30.4165 14.584Z" fill="#676F71"/>
</svg>
