<svg
                  width="103"
                  height="33"
                  viewBox="0 0 103 33"
                  fill="none"
                  xmlns="http://www.w3.org/2000/svg"
                >
                  <g clip-path="url(#clip0_3817_47512)">
                    <path
                      d="M5.35429 5.87238C6.52209 5.15325 7.72638 4.67384 9.00367 4.51403C10.2809 4.35422 11.5217 4.43413 12.726 4.79369C13.9303 5.15325 15.0251 5.75253 16.047 6.59151C17.0688 7.43049 17.9081 8.46923 18.6015 9.74769C19.2584 11.0261 19.6598 12.3445 19.8058 13.7428C19.9518 15.1411 19.8788 16.4995 19.5504 17.8179C19.2219 19.1363 18.6745 20.3349 17.9081 21.4535C17.1418 22.5721 16.1929 23.491 15.0251 24.2102C14.2953 24.6496 13.5654 25.0092 12.8355 25.2489C12.1056 25.4886 11.3028 25.6085 10.5364 25.6484C9.77003 25.6884 9.00367 25.6484 8.27379 25.4487C7.54392 25.2489 6.81404 25.0092 6.12066 24.6496V18.1375C6.4856 18.7368 6.92352 19.2162 7.43444 19.5758C7.94535 19.9353 8.52925 20.215 9.11315 20.3748C9.69705 20.5346 10.3174 20.5346 10.9378 20.4547C11.5582 20.3748 12.1421 20.1351 12.726 19.7755C13.3099 19.416 13.8208 18.9365 14.2223 18.3373C14.6237 17.738 14.8792 17.1387 15.0616 16.4595C15.2441 15.7804 15.2806 15.1012 15.2076 14.3821C15.1346 13.6629 14.9157 12.9838 14.5872 12.3445C14.2588 11.7053 13.8208 11.146 13.2734 10.7065C12.726 10.2671 12.1786 9.98739 11.5582 9.78764C10.9378 9.58788 10.3174 9.54793 9.66055 9.62783C9.00367 9.70773 8.38327 9.94744 7.79937 10.307C7.0695 10.7465 6.4856 11.3457 6.08417 12.1048C5.68274 12.8639 5.42728 13.6629 5.35429 14.5019V32.9196H0.500625V15.8203C0.427638 14.8215 0.500625 13.8627 0.683094 12.9039C0.865563 11.945 1.15751 11.0261 1.59544 10.1472C2.03336 9.26827 2.54427 8.46923 3.16467 7.75011C3.78506 7.03098 4.51494 6.39175 5.35429 5.87238Z"
                      fill="#52595A"
                    />
                    <path
                      d="M40.6803 19.7752C40.6803 19.9749 40.7533 20.1747 40.8993 20.2945C41.0453 20.4144 41.1912 20.4943 41.4102 20.4943V25.6081H41.0453C41.0453 25.6081 40.8263 25.6081 40.7168 25.6081V32.9192H36.0091V24.0899C35.9361 24.1299 35.8997 24.1699 35.8267 24.1699C34.6589 24.889 33.4181 25.3684 32.1773 25.5282C30.9365 25.688 29.6592 25.6081 28.4549 25.2485C27.2506 24.889 26.1193 24.2897 25.0975 23.4507C24.0757 22.6117 23.2363 21.5331 22.5429 20.2546C21.8861 18.9761 21.4481 17.6577 21.3022 16.2594C21.1562 14.8611 21.2292 13.5028 21.5576 12.1844C21.8861 10.866 22.4335 9.62748 23.1998 8.50884C23.9662 7.39019 24.915 6.43135 26.0828 5.71223C27.2506 4.9931 28.4914 4.51368 29.7322 4.35387C30.973 4.19407 32.2503 4.27397 33.4546 4.63353C34.6589 4.9931 35.7902 5.59237 36.812 6.43135C37.8338 7.27034 38.6732 8.30908 39.3666 9.58753C39.8045 10.4265 40.1329 11.3054 40.3519 12.1844C40.5709 13.0633 40.6803 13.9423 40.6803 14.8611V19.6953V19.7752ZM33.3816 10.2667C32.7977 9.90714 32.1408 9.66743 31.4839 9.58753C30.827 9.50763 30.2066 9.58753 29.5862 9.74733C28.9658 9.90714 28.3819 10.2268 27.871 10.6662C27.3601 11.1057 26.8857 11.6251 26.5573 12.3042C26.2288 12.9834 26.0099 13.6626 25.9369 14.3817C25.8639 15.1008 25.9369 15.78 26.0828 16.4592C26.2288 17.1384 26.5208 17.7776 26.9222 18.3369C27.3236 18.8962 27.798 19.4156 28.4184 19.7752C29.0388 20.1347 29.6592 20.3745 30.3161 20.4544C30.973 20.5343 31.5934 20.4544 32.2138 20.2945C32.8342 20.1347 33.4181 19.8151 33.929 19.3757C34.4399 18.9362 34.9143 18.4168 35.2428 17.7376C35.5712 17.0585 35.7902 16.3793 35.8632 15.6602C35.9361 14.941 35.8632 14.2619 35.7172 13.5827C35.5712 12.9035 35.2793 12.2643 34.8778 11.705C34.4764 11.1456 33.9655 10.6263 33.3816 10.2667Z"
                      fill="#52595A"
                    />
                    <path
                      d="M44.0013 24.8898C43.162 25.4492 42.2496 25.6889 41.3008 25.6489V20.4552C41.4832 20.4552 41.6657 20.3753 41.8117 20.2155C41.9577 20.0557 42.0307 19.8959 42.0307 19.6562V15.3414C42.0307 14.3826 42.1036 13.4637 42.2861 12.5448C42.4686 11.6259 42.797 10.747 43.1985 9.90799C43.5999 9.06901 44.1108 8.30993 44.7312 7.63075C45.3516 6.95157 46.045 6.31235 46.8478 5.79298C48.0156 5.07385 49.2564 4.59443 50.4972 4.43462C51.738 4.27482 53.0153 4.35472 54.2196 4.71428C55.4239 5.07385 56.5552 5.67312 57.577 6.51211C58.5988 7.35109 59.4382 8.38983 60.1315 9.66828C60.7154 10.7869 61.1169 11.9056 61.2993 13.1041C61.4818 14.3027 61.4818 15.4613 61.3358 16.6199C61.5913 16.0605 61.7738 15.4613 61.9197 14.822C62.0657 14.1828 62.1387 13.5036 62.1387 12.8245C62.1387 11.7058 61.9562 10.6671 61.5913 9.66828C61.2264 8.66949 60.7154 7.83051 60.0586 7.07143C59.4017 6.31235 58.6353 5.71307 57.7595 5.27361C56.8836 4.83414 55.9348 4.55448 54.9494 4.47458V0C56.5187 0.0799031 57.9784 0.439467 59.3652 1.11864C60.7519 1.79782 61.9562 2.75666 62.9416 3.8753C63.9269 4.99395 64.7663 6.3523 65.3502 7.91041C65.9341 9.46852 66.226 11.0666 66.226 12.7845C66.226 14.5024 65.9341 16.2203 65.3137 17.7784C64.6933 19.3366 63.8539 20.6949 62.7956 21.8535C61.7373 23.0121 60.4965 23.931 59.0732 24.6102C57.65 25.2893 56.1537 25.609 54.5115 25.609H51.3001C50.2417 25.569 49.2199 25.3293 48.2711 24.9298C47.3222 24.5303 46.4099 23.9709 45.5705 23.2518C45.3516 23.5714 45.1326 23.8511 44.8407 24.0908C44.5487 24.3305 44.2568 24.5702 43.9283 24.8099L44.0013 24.8898ZM49.2199 10.2676C48.636 10.6271 48.1251 11.1065 47.7237 11.7058C47.3222 12.3051 47.0668 12.9044 46.8843 13.5835C46.7019 14.2627 46.6654 14.9419 46.7383 15.661C46.8113 16.3801 47.0303 17.0593 47.3587 17.7385C47.6872 18.4177 48.1251 18.937 48.6725 19.3765C49.2199 19.816 49.7673 20.0956 50.3877 20.2954C51.0081 20.4952 51.6285 20.5351 52.2854 20.4552C52.9423 20.3753 53.5627 20.1356 54.1831 19.776C54.8035 19.4165 55.2779 18.937 55.6793 18.3378C56.0807 17.7385 56.3362 17.1392 56.5187 16.46C56.7011 15.7809 56.7376 15.1017 56.6646 14.3826C56.5917 13.6634 56.3727 12.9843 56.0443 12.3051C55.7158 11.6259 55.2779 11.1065 54.7305 10.6671C54.1831 10.2276 53.6357 9.94794 53.0153 9.74818C52.3949 9.54843 51.7745 9.50847 51.1176 9.58838C50.4607 9.66828 49.8403 9.90799 49.2199 10.2676Z"
                      fill="#52595A"
                    />
                    <path
                      d="M79.5083 14.783C79.5083 13.944 79.6543 13.0651 79.8368 12.2261C80.0193 11.3871 80.3842 10.5481 80.7856 9.70915C81.2236 8.87017 81.7345 8.15104 82.3184 7.51182C82.9023 6.87259 83.5592 6.31327 84.289 5.8738C85.0189 5.43434 85.7488 5.07477 86.5151 4.83506C87.2815 4.59535 88.0844 4.4755 88.9237 4.43555H90.4565V9.54935H88.9237C88.1209 9.62925 87.3545 9.86896 86.6246 10.3484C85.8948 10.8278 85.3109 11.467 84.8729 12.306C84.7635 12.5457 84.654 12.7854 84.581 13.0251C84.508 13.2648 84.3985 13.5046 84.362 13.7443H89.5806C89.5806 13.7443 89.7631 13.7443 89.8726 13.7842C90.566 13.8641 91.1863 14.1038 91.7702 14.4234C92.3541 14.7431 92.8651 15.1825 93.303 15.7418C93.7409 16.3012 94.0693 16.8605 94.3248 17.5397C94.5803 18.2188 94.6897 18.938 94.6897 19.697C94.6897 20.536 94.5438 21.2951 94.2883 22.0142C94.0329 22.7334 93.6314 23.3726 93.157 23.892C92.6826 24.4113 92.0987 24.8508 91.4418 25.1704C90.7849 25.49 90.0915 25.6498 89.3617 25.6498H78.6325C77.7931 25.6498 76.9538 25.53 76.1509 25.3302C75.3481 25.1305 74.5817 24.7709 73.8153 24.3314C73.049 23.892 72.3921 23.3326 71.7717 22.6535C71.1513 21.9743 70.6039 21.2552 70.166 20.3762C69.728 19.5372 69.3631 18.6583 69.1806 17.7794C68.9982 16.9004 68.8887 15.9816 68.8887 15.0627V9.6692H73.5964V15.1825C73.5964 15.622 73.6694 16.1014 73.7788 16.5409C73.8883 16.9803 74.0343 17.4198 74.2532 17.8193C74.6912 18.6983 75.3116 19.3774 76.0779 19.8169C76.8443 20.2564 77.6472 20.536 78.523 20.536L89.6536 20.4561C89.6536 20.4561 89.9456 20.2963 90.0185 20.1365C90.0915 19.9767 90.1645 19.8569 90.1645 19.6571C90.1645 19.4573 90.128 19.3375 90.0185 19.2176C89.9091 19.0978 89.8361 18.9779 89.6901 18.898H84.1795H79.5448L79.5083 14.783Z"
                      fill="#DC2655"
                    />
                    <path
                      d="M96.6252 22.3326C96.5522 23.1716 96.2968 23.9706 95.8588 24.7297C95.4209 25.4888 94.837 26.088 94.1436 26.5275C93.7057 26.8072 93.2313 27.0069 92.7569 27.1268C92.2825 27.2466 91.808 27.2866 91.2971 27.2466C90.9322 27.2466 90.0928 27.1268 89.6914 27.0868L89.7644 32.3205C90.7862 32.6001 91.4796 32.4803 92.5379 32.4004C93.8882 32.2805 95.202 31.8011 96.4427 31.0021C97.2821 30.4827 98.012 29.8435 98.6324 29.1244C99.2528 28.4052 99.7637 27.6062 100.202 26.7273C100.64 25.8483 100.895 24.9694 101.077 24.0106C101.26 23.0517 101.333 22.0929 101.26 21.0941V10.5469H96.5522V22.3725L96.6252 22.3326Z"
                      fill="#DC2655"
                    />
                    <path
                      d="M102.209 3.51517C102.026 3.03575 101.771 2.59628 101.442 2.23672C101.114 1.87716 100.749 1.5975 100.311 1.39774C99.873 1.19798 99.3986 1.07812 98.8877 1.07812C98.3767 1.07812 97.9023 1.19798 97.4644 1.39774C97.0265 1.5975 96.625 1.87716 96.2966 2.23672C95.9682 2.59628 95.7127 3.03575 95.5302 3.51517C95.3478 3.99459 95.2383 4.51396 95.2383 5.07328C95.2383 5.6326 95.3478 6.15197 95.5302 6.63139C95.7127 7.11081 95.9682 7.55028 96.2966 7.90984C96.625 8.26941 97.0265 8.54907 97.4644 8.74883C97.9023 8.94859 98.3767 9.06844 98.8877 9.06844C99.3986 9.06844 99.873 8.94859 100.311 8.74883C100.749 8.54907 101.15 8.26941 101.442 7.90984C101.734 7.55028 102.026 7.11081 102.209 6.63139C102.391 6.15197 102.501 5.6326 102.501 5.07328C102.501 4.51396 102.391 3.99459 102.209 3.51517Z"
                      fill="#DC2655"
                    />
                  </g>
                  <defs>
                    <clipPath id="clip0_3817_47512">
                      <rect
                        width="102"
                        height="33"
                        fill="white"
                        transform="translate(0.5)"
                      />
                    </clipPath>
                  </defs>
                </svg>