<svg width="55" height="54" viewBox="0 0 55 54" fill="none" xmlns="http://www.w3.org/2000/svg">
<path fill-rule="evenodd" clip-rule="evenodd" d="M22.0829 7.20061C21.535 7.66756 21.261 7.90105 20.9684 8.09716C20.2977 8.54672 19.5444 8.85873 18.7522 9.01513C18.4066 9.08335 18.0478 9.11199 17.3302 9.16926C15.5271 9.31315 14.6255 9.38509 13.8733 9.65076C12.1336 10.2652 10.7652 11.6336 10.1508 13.3733C9.88509 14.1255 9.81315 15.0271 9.66926 16.8302C9.61199 17.5478 9.58335 17.9066 9.51513 18.2522C9.35873 19.0444 9.04672 19.7977 8.59716 20.4684C8.40105 20.761 8.16757 21.035 7.70061 21.5829C6.52738 22.9596 5.94073 23.648 5.59674 24.3677C4.80109 26.0324 4.80109 27.9676 5.59674 29.6323C5.94074 30.352 6.52736 31.0403 7.70061 32.4171C8.16752 32.965 8.40106 33.239 8.59716 33.5316C9.04672 34.2023 9.35873 34.9556 9.51513 35.7478C9.58335 36.0933 9.61199 36.4522 9.66926 37.1698C9.81315 38.9729 9.88509 39.8745 10.1508 40.6267C10.7652 42.3663 12.1336 43.7348 13.8733 44.3492C14.6255 44.6149 15.5271 44.6869 17.3302 44.8307C18.0478 44.888 18.4066 44.9166 18.7522 44.9849C19.5444 45.1413 20.2977 45.4533 20.9684 45.9028C21.261 46.099 21.535 46.3324 22.0829 46.7994C23.4596 47.9726 24.148 48.5593 24.8677 48.9033C26.5324 49.6989 28.4676 49.6989 30.1323 48.9033C30.852 48.5593 31.5403 47.9726 32.9171 46.7994C33.465 46.3324 33.739 46.099 34.0316 45.9028C34.7023 45.4533 35.4556 45.1413 36.2478 44.9849C36.5933 44.9166 36.9522 44.888 37.6698 44.8307C39.4729 44.6869 40.3745 44.6149 41.1267 44.3492C42.8664 43.7348 44.2348 42.3664 44.8492 40.6267C45.1149 39.8745 45.1869 38.9729 45.3307 37.1698C45.388 36.4522 45.4166 36.0933 45.4849 35.7478C45.6413 34.9556 45.9533 34.2023 46.4028 33.5316C46.599 33.239 46.8324 32.965 47.2994 32.4171C48.4726 31.0403 49.0593 30.352 49.4033 29.6323C50.1989 27.9676 50.1989 26.0324 49.4033 24.3677C49.0593 23.648 48.4726 22.9596 47.2994 21.5829C46.8324 21.035 46.599 20.761 46.4028 20.4684C45.9533 19.7977 45.6413 19.0444 45.4849 18.2522C45.4166 17.9066 45.388 17.5478 45.3307 16.8302C45.1869 15.0271 45.1149 14.1255 44.8492 13.3733C44.2348 11.6336 42.8663 10.2652 41.1267 9.65076C40.3745 9.38509 39.4729 9.31315 37.6698 9.16926C36.9522 9.11199 36.5933 9.08335 36.2478 9.01513C35.4556 8.85873 34.7023 8.54672 34.0316 8.09716C33.739 7.90105 33.465 7.66757 32.9171 7.20061C31.5403 6.02736 30.852 5.44074 30.1323 5.09674C28.4676 4.30109 26.5324 4.30109 24.8677 5.09674C24.148 5.44074 23.4596 6.02737 22.0829 7.20061ZM37.3403 22.1921C38.0555 21.4769 38.0555 20.3175 37.3403 19.6024C36.6252 18.8872 35.4658 18.8872 34.7507 19.6024L23.8376 30.5154L20.2493 26.9271C19.5342 26.212 18.3747 26.212 17.6596 26.9271C16.9445 27.6422 16.9445 28.8017 17.6596 29.5168L22.5428 34.4C23.2579 35.1151 24.4173 35.1151 25.1324 34.4L37.3403 22.1921Z" fill="#00A478"/>
</svg>
