<svg width="25" height="24" viewBox="0 0 25 24" fill="none" xmlns="http://www.w3.org/2000/svg">
<path d="M12.5 12C14.9853 12 17 9.98528 17 7.5C17 5.01472 14.9853 3 12.5 3C10.0147 3 8 5.01472 8 7.5C8 9.98528 10.0147 12 12.5 12ZM15.5 7.5C15.5 9.15685 14.1569 10.5 12.5 10.5C10.8431 10.5 9.5 9.15685 9.5 7.5C9.5 5.84315 10.8431 4.5 12.5 4.5C14.1569 4.5 15.5 5.84315 15.5 7.5Z" fill="#3E4344"/>
<path d="M21.5 19.5C21.5 21 20 21 20 21H5C5 21 3.5 21 3.5 19.5C3.5 18 5 13.5 12.5 13.5C20 13.5 21.5 18 21.5 19.5ZM20 19.4948C19.9978 19.1246 19.7693 18.0157 18.7518 16.9982C17.7734 16.0198 15.9336 15 12.5 15C9.06632 15 7.22653 16.0198 6.24815 16.9982C5.23063 18.0157 5.00214 19.1246 5 19.4948H20Z" fill="#3E4344"/>
</svg>
