<svg width="24" height="24" viewBox="0 0 24 24" fill="none" xmlns="http://www.w3.org/2000/svg">
<path fill-rule="evenodd" clip-rule="evenodd" d="M5.99776 2.99609C5.99776 5.20615 4.20615 6.99776 1.99609 6.99776C4.20615 6.99776 5.99776 8.78937 5.99776 10.9994C5.99776 8.78937 7.78937 6.99776 9.99943 6.99776C7.78937 6.99776 5.99776 5.20615 5.99776 2.99609Z" stroke="#676F71" stroke-width="1.5" stroke-linecap="round" stroke-linejoin="round"/>
<path fill-rule="evenodd" clip-rule="evenodd" d="M17.0021 15.0003C17.0021 12.2377 14.7626 9.99818 12 9.99818C14.7626 9.99818 17.0021 7.75867 17.0021 4.99609C17.0021 7.75867 19.2416 9.99818 22.0042 9.99818C19.2416 9.99818 17.0021 12.2377 17.0021 15.0003Z" stroke="#676F71" stroke-width="1.5" stroke-linecap="round" stroke-linejoin="round"/>
<path d="M17.0022 15V16.0004" stroke="#676F71" stroke-width="1.5" stroke-linecap="round" stroke-linejoin="round"/>
<path d="M17.0022 4.99651V3.99609" stroke="#676F71" stroke-width="1.5" stroke-linecap="round" stroke-linejoin="round"/>
<path d="M9.99923 21.002V22.0024" stroke="#676F71" stroke-width="1.5" stroke-linecap="round" stroke-linejoin="round"/>
<path d="M9.99923 14.0004V13" stroke="#676F71" stroke-width="1.5" stroke-linecap="round" stroke-linejoin="round"/>
<path d="M5.99777 10.998V11.9985" stroke="#676F71" stroke-width="1.5" stroke-linecap="round" stroke-linejoin="round"/>
<path d="M5.99777 1.99414V2.99456" stroke="#676F71" stroke-width="1.5" stroke-linecap="round" stroke-linejoin="round"/>
<path fill-rule="evenodd" clip-rule="evenodd" d="M9.99923 13.5C9.99923 15.7101 8.20762 17.5017 5.99756 17.5017C8.20762 17.5017 9.99923 19.2933 9.99923 21.5033C9.99923 19.2933 11.7908 17.5017 14.0009 17.5017C11.7908 17.5017 9.99923 15.7101 9.99923 13.5Z" stroke="#676F71" stroke-width="1.5" stroke-linecap="round" stroke-linejoin="round"/>
</svg>
